<svg width="954" height="456" viewBox="0 0 954 456" fill="none" xmlns="http://www.w3.org/2000/svg">
<path d="M29.3538 10.8571V0H924.646V10.8571H29.3538Z" fill="#FFF8DC"/>
<path d="M29.3538 445.143V456H924.646V445.143H29.3538Z" fill="#FFF8DC"/>
<path d="M0 43.4286H9.78462V418H0V43.4286Z" fill="#FFF8DC"/>
<path d="M9.78462 27.1429H19.5692V43.4286H9.78462V27.1429Z" fill="#FFF8DC"/>
<path d="M19.5692 10.8571H29.3538V27.1429H19.5692V10.8571Z" fill="#FFF8DC"/>
<path d="M0 412.571H9.78462V38H0V412.571Z" fill="#FFF8DC"/>
<path d="M9.78462 428.857H19.5692V412.571H9.78462V428.857Z" fill="#FFF8DC"/>
<path d="M19.5692 445.143H29.3538V428.857H19.5692V445.143Z" fill="#FFF8DC"/>
<path d="M954 43.4286H944.216V418H954V43.4286Z" fill="#FFF8DC"/>
<path d="M944.216 27.1429H934.431V43.4286H944.216V27.1429Z" fill="#FFF8DC"/>
<path d="M934.431 10.8571H924.646V27.1429H934.431V10.8571Z" fill="#FFF8DC"/>
<path d="M954 412.571H944.216V38H954V412.571Z" fill="#FFF8DC"/>
<path d="M944.216 428.857H934.431V412.571H944.216V428.857Z" fill="#FFF8DC"/>
<path d="M934.431 445.143H924.646V428.857H934.431V445.143Z" fill="#FFF8DC"/>
</svg>
