<svg width="936" height="338" viewBox="0 0 936 338" fill="none" xmlns="http://www.w3.org/2000/svg">
<g clip-path="url(#clip0_103_2)">
<path d="M441.059 52.1793H415.117V78.1358H441.059V52.1793Z" fill="#7A4D2C"/>
<path d="M415.118 26.2229H389.156V52.1794H415.118V26.2229Z" fill="#7A4D2C"/>
<path d="M389.156 259.858H363.208H337.266H311.325V285.814H285.383H259.442H233.5H207.559H181.617H155.676V311.777H181.617H207.559H233.5H259.442H285.383H311.325H337.266H363.208H389.156H415.117H441.059V285.814V259.858V233.901V207.945H415.117H389.156V233.901V259.858Z" fill="#7A4D2C"/>
<path d="M77.8243 52.1793H51.8828V78.1358H77.8243V52.1793Z" fill="#AA6A40"/>
<path d="M233.5 78.1358H259.442H285.383V52.1794V26.2229H259.442H233.5H207.559H181.617V52.1794V78.1358H207.559H233.5Z" fill="#AA6A40"/>
<path d="M415.118 52.1793H389.156V78.1358H415.118V52.1793Z" fill="#AA6A40"/>
<path d="M77.8242 259.858V285.814H103.766H129.707V311.777H155.675V285.814H181.617H207.558H233.5H259.441H285.383H311.324V259.858H337.266H363.207H389.155V233.901V207.945H363.207H337.266H311.324H285.383H259.441H233.5H207.558H181.617H155.675H129.707H103.766H77.8242V233.901V259.858Z" fill="#AA6A40"/>
<path d="M77.8243 26.2229H51.8828V52.1794H77.8243V26.2229Z" fill="#C97C4B"/>
<path d="M51.8829 52.1793H25.9414V78.1358H51.8829V52.1793Z" fill="#C97C4B"/>
<path d="M25.9414 285.814V311.777H51.8829H77.8244H103.766H129.707V285.814H103.766H77.8244V259.858V233.901V207.945H51.8829H25.9414V233.901V259.858V285.814Z" fill="#C97C4B"/>
<path d="M207.559 130.049H181.617V156.005H207.559V130.049Z" fill="#F1C563"/>
<path d="M181.617 130.049H155.676V156.005H181.617V130.049Z" fill="#F1C563"/>
<path d="M155.675 130.049H129.707V156.005H155.675V130.049Z" fill="#F1C563"/>
<path d="M129.707 130.049H103.766V156.005H129.707V130.049Z" fill="#F1C563"/>
<path d="M103.766 130.049H77.8242V156.005H103.766V130.049Z" fill="#F1C563"/>
<path d="M77.8243 130.049H51.8828V156.005H77.8243V130.049Z" fill="#F1C563"/>
<path d="M415.118 130.049H389.156V156.005H415.118V130.049Z" fill="#F1C563"/>
<path d="M415.118 104.092H389.156V130.049H415.118V104.092Z" fill="#F1C563"/>
<path d="M363.207 130.049H337.266V156.005H363.207V130.049Z" fill="#F1C563"/>
<path d="M389.149 130.049H363.207V156.005H389.149V130.049Z" fill="#F1C563"/>
<path d="M389.149 104.092H363.207V130.049H389.149V104.092Z" fill="#F1C563"/>
<path d="M363.207 104.092H337.266V130.049H363.207V104.092Z" fill="#F1C563"/>
<path d="M311.324 130.049H285.383V156.005H311.324V130.049Z" fill="#F1C563"/>
<path d="M311.324 104.092H285.383V130.049H311.324V104.092Z" fill="#F1C563"/>
<path d="M337.266 104.092H311.324V130.049H337.266V104.092Z" fill="#F1C563"/>
<path d="M311.324 156.012H285.383V181.995H311.324V156.012Z" fill="#F1C563"/>
<path d="M337.266 130.049H311.324V156.005H337.266V130.049Z" fill="#F1C563"/>
<path d="M285.383 156.012H259.441V181.995H285.383V156.012Z" fill="#F1C563"/>
<path d="M285.383 130.049H259.441V156.005H285.383V130.049Z" fill="#F1C563"/>
<path d="M285.383 104.092H259.441V130.049H285.383V104.092Z" fill="#F1C563"/>
<path d="M259.441 104.092H233.5V130.049H259.441V104.092Z" fill="#F1C563"/>
<path d="M259.441 156.012H233.5V181.995H259.441V156.012Z" fill="#F1C563"/>
<path d="M233.5 156.012H207.559V181.995H233.5V156.012Z" fill="#F1C563"/>
<path d="M233.5 104.092H207.559V130.049H233.5V104.092Z" fill="#F1C563"/>
<path d="M207.559 156.012H181.617V181.995H207.559V156.012Z" fill="#F1C563"/>
<path d="M207.559 104.092H181.617V130.049H207.559V104.092Z" fill="#F1C563"/>
<path d="M181.617 104.092H155.676V130.049H181.617V104.092Z" fill="#F1C563"/>
<path d="M181.617 156.012H155.676V181.995H181.617V156.012Z" fill="#F1C563"/>
<path d="M155.675 130.049V104.092H129.707V130.049H155.675Z" fill="#F1C563"/>
<path d="M129.707 156.012V181.988H155.675V156.012H129.707Z" fill="#F1C563"/>
<path d="M129.707 104.092H103.766V130.049H129.707V104.092Z" fill="#F1C563"/>
<path d="M103.766 104.092H77.8242V130.049H103.766V104.092Z" fill="#F1C563"/>
<path d="M129.707 156.012H103.766V181.995H129.707V156.012Z" fill="#F1C563"/>
<path d="M103.766 156.012H77.8242V181.995H103.766V156.012Z" fill="#F1C563"/>
<path d="M51.8829 104.092H25.9414V130.049H51.8829V104.092Z" fill="#F1C563"/>
<path d="M51.8829 181.988V156.012H25.9414V181.988H51.8829Z" fill="#F1C563"/>
<path d="M77.8243 156.012H51.8828V181.995H77.8243V156.012Z" fill="#F1C563"/>
<path d="M77.8243 104.092H51.8828V130.049H77.8243V104.092Z" fill="#F1C563"/>
<path d="M51.8829 130.049H25.9414V156.005H51.8829V130.049Z" fill="#F1C563"/>
<path d="M337.266 52.1793H311.324V78.1358H337.266V52.1793Z" fill="#F1C563"/>
<path d="M337.266 26.2229H311.324V52.1794H337.266V26.2229Z" fill="#F1C563"/>
<path d="M415.117 156.012H389.155H363.207H337.266H311.324V181.988H337.266H363.207H389.155H415.117H441.058V156.012V130.049V104.092H415.117V130.049V156.012Z" fill="#ECA95D"/>
<path d="M337.266 78.1358H363.207V52.1794V26.2229H337.266V52.1794V78.1358Z" fill="#ECA95D"/>
<path d="M129.707 78.1358H155.675V52.1794V26.2229H129.707V52.1794V78.1358Z" fill="#ECA95D"/>
<path d="M129.707 52.1793H103.766V78.1358H129.707V52.1793Z" fill="#F1C563"/>
<path d="M129.707 26.2229H103.766V52.1794H129.707V26.2229Z" fill="#F1C563"/>
<path d="M233.5 156.012H259.442V130.049H233.5H207.559V156.012H233.5Z" fill="black"/>
<path d="M0 145.519V156.012V173.551V181.988V190.798V207.945V233.901V259.858V260.264V269.892V285.807V311.764V317.513V318.737V337.72H25.9415H51.883H77.8245H103.766H129.707H155.669H181.61H207.552H233.493H259.435H285.376H311.318H337.259H363.201H389.142H415.104H441.045H466.987V318.737V317.513V311.764V285.807V269.892V260.264V259.858V233.901V207.945V190.798V181.988V173.551V156.012V145.519V130.055V118.584V104.099V78.1425V52.1794H441.045V78.1358H415.104H389.156V52.1794V26.2229H415.117V0.266479H389.156H363.214H337.273H311.331H285.39H259.448H233.507H207.565H181.624H155.676H129.714H103.773H77.8311H51.883V26.2229H77.8245V52.1794V78.1358H51.883H25.9415V52.1794H0V78.1358V104.092V118.578V130.049V145.519ZM311.324 52.1794V26.2229H337.266H363.207V52.1794V78.1358H337.266H311.324V52.1794ZM181.617 52.1794V26.2229H207.559H233.5H259.441H285.383V52.1794V78.1358H259.441H233.5H207.559H181.617V52.1794ZM103.766 52.1794V26.2229H129.707H155.669V52.1794V78.1358H129.707H103.766V52.1794ZM25.9415 156.012V130.055V104.099H51.883H77.8245H103.766H129.707H155.669H181.61H207.552H233.493H259.435H285.376H311.318H337.259H363.201H389.142H415.104H441.045V130.055V156.012V181.995H415.104H389.156H363.214H337.273H311.331H285.39H259.448H233.507H207.565H181.624H155.676H129.714H103.773H77.8311H51.883H25.9415V156.012ZM25.9415 233.901V207.945H51.883H77.8245H103.766H129.707H155.669H181.61H207.552H233.493H259.435H285.376H311.318H337.259H363.201H389.142H415.104H441.045V233.901V259.858V285.814V311.771H415.104H389.156H363.214H337.273H311.331H285.39H259.448H233.507H207.565H181.624H155.676H129.714H103.773H77.8311H51.883H25.9415V285.814V259.858V233.901Z" fill="black"/>
<path d="M441.059 26.2229H415.117V52.1794H441.059V26.2229Z" fill="black"/>
<path d="M51.8829 26.2229H25.9414V52.1794H51.8829V26.2229Z" fill="black"/>
<rect x="20.4531" y="173.261" width="420.982" height="46.0182" fill="black"/>
<path d="M92.5846 207V189.094L95.511 191.875H89.1077V186.718H99.4226V207H92.5846ZM111.411 207V186.718H117.032L127.347 199.061H124.74V186.718H131.404V207H125.783L115.468 194.657H118.076V207H111.411ZM141.073 195.352H149.997V200.51H141.073V195.352ZM141.536 207H134.699V186.718H151.185V191.875H141.536V207ZM157.891 207V192.02H151.951V186.718H170.668V192.02H164.729V207H157.891ZM181.073 195.555V190.629H195.85V195.555H181.073ZM181.073 203.088V198.163H195.85V203.088H181.073ZM214.276 207.464C212.885 207.464 211.475 207.309 210.045 207C208.616 206.691 207.36 206.237 206.279 205.638L208.597 200.597C209.466 201.099 210.374 201.476 211.32 201.727C212.267 201.958 213.165 202.074 214.015 202.074C214.788 202.074 215.425 201.939 215.927 201.669C216.429 201.398 216.681 201.002 216.681 200.481C216.681 200.191 216.594 199.94 216.42 199.727C216.246 199.496 215.937 199.322 215.493 199.206C215.068 199.09 214.44 199.032 213.609 199.032H207.727L208.742 186.718H222.215V191.875H211.146L214.594 188.949L213.986 196.801L210.538 193.875H215.261C217.27 193.875 218.873 194.164 220.071 194.744C221.288 195.323 222.166 196.106 222.707 197.091C223.267 198.057 223.548 199.138 223.548 200.336C223.548 201.533 223.219 202.683 222.562 203.784C221.925 204.866 220.921 205.754 219.549 206.449C218.197 207.126 216.439 207.464 214.276 207.464ZM234.098 207.464C232.302 207.464 230.708 207.048 229.318 206.218C227.946 205.387 226.864 204.18 226.072 202.596C225.3 201.012 224.913 199.1 224.913 196.859C224.913 194.618 225.3 192.706 226.072 191.122C226.864 189.538 227.946 188.331 229.318 187.5C230.708 186.67 232.302 186.254 234.098 186.254C235.895 186.254 237.479 186.67 238.85 187.5C240.241 188.331 241.323 189.538 242.095 191.122C242.887 192.706 243.283 194.618 243.283 196.859C243.283 199.1 242.887 201.012 242.095 202.596C241.323 204.18 240.241 205.387 238.85 206.218C237.479 207.048 235.895 207.464 234.098 207.464ZM234.098 201.987C234.543 201.987 234.939 201.833 235.286 201.524C235.634 201.215 235.904 200.684 236.098 199.93C236.31 199.177 236.416 198.153 236.416 196.859C236.416 195.545 236.31 194.522 236.098 193.788C235.904 193.034 235.634 192.503 235.286 192.194C234.939 191.885 234.543 191.73 234.098 191.73C233.654 191.73 233.258 191.885 232.91 192.194C232.563 192.503 232.283 193.034 232.07 193.788C231.877 194.522 231.78 195.545 231.78 196.859C231.78 198.153 231.877 199.177 232.07 199.93C232.283 200.684 232.563 201.215 232.91 201.524C233.258 201.833 233.654 201.987 234.098 201.987ZM258.877 207V192.02H252.937V186.718H271.655V192.02H265.715V207H258.877ZM283.781 207.464C282.139 207.464 280.613 207.203 279.203 206.681C277.813 206.16 276.605 205.426 275.582 204.479C274.558 203.513 273.756 202.383 273.177 201.089C272.617 199.795 272.336 198.385 272.336 196.859C272.336 195.314 272.617 193.904 273.177 192.629C273.756 191.334 274.558 190.214 275.582 189.268C276.605 188.302 277.813 187.558 279.203 187.037C280.613 186.515 282.139 186.254 283.781 186.254C285.443 186.254 286.969 186.515 288.359 187.037C289.75 187.558 290.957 188.302 291.981 189.268C293.005 190.214 293.797 191.334 294.357 192.629C294.937 193.904 295.226 195.314 295.226 196.859C295.226 198.385 294.937 199.795 294.357 201.089C293.797 202.383 293.005 203.513 291.981 204.479C290.957 205.426 289.75 206.16 288.359 206.681C286.969 207.203 285.443 207.464 283.781 207.464ZM283.781 201.929C284.419 201.929 285.008 201.814 285.549 201.582C286.109 201.35 286.592 201.022 286.998 200.597C287.422 200.152 287.751 199.621 287.983 199.003C288.214 198.366 288.33 197.651 288.33 196.859C288.33 196.067 288.214 195.362 287.983 194.744C287.751 194.106 287.422 193.575 286.998 193.15C286.592 192.706 286.109 192.368 285.549 192.136C285.008 191.904 284.419 191.788 283.781 191.788C283.144 191.788 282.545 191.904 281.985 192.136C281.444 192.368 280.961 192.706 280.536 193.15C280.131 193.575 279.812 194.106 279.58 194.744C279.348 195.362 279.232 196.067 279.232 196.859C279.232 197.651 279.348 198.366 279.58 199.003C279.812 199.621 280.131 200.152 280.536 200.597C280.961 201.022 281.444 201.35 281.985 201.582C282.545 201.814 283.144 201.929 283.781 201.929ZM303.822 202.654L303.445 195.149L311.094 186.718H318.541L309.964 196.164L306.169 200.046L303.822 202.654ZM297.708 207V186.718H304.43V207H297.708ZM311.036 207L305.068 199.119L309.501 194.425L318.946 207H311.036ZM326.122 194.251H335.162V199.177H326.122V194.251ZM326.585 201.843H336.727V207H319.863V186.718H336.35V191.875H326.585V201.843ZM339.359 207V186.718H344.98L355.295 199.061H352.687V186.718H359.351V207H353.73L343.415 194.657H346.023V207H339.359ZM370.208 207.464C368.508 207.464 366.867 207.27 365.283 206.884C363.699 206.498 362.395 205.996 361.371 205.377L363.573 200.394C364.539 200.954 365.611 201.408 366.789 201.756C367.987 202.084 369.146 202.248 370.266 202.248C370.923 202.248 371.435 202.21 371.802 202.132C372.188 202.036 372.468 201.91 372.642 201.756C372.816 201.582 372.903 201.379 372.903 201.147C372.903 200.78 372.7 200.49 372.294 200.278C371.889 200.065 371.348 199.892 370.672 199.756C370.015 199.602 369.291 199.447 368.499 199.293C367.707 199.119 366.905 198.897 366.094 198.626C365.302 198.356 364.568 197.999 363.892 197.554C363.235 197.11 362.704 196.531 362.298 195.816C361.893 195.082 361.69 194.174 361.69 193.092C361.69 191.837 362.037 190.697 362.733 189.673C363.448 188.63 364.5 187.8 365.891 187.181C367.301 186.563 369.049 186.254 371.135 186.254C372.507 186.254 373.859 186.399 375.192 186.689C376.525 186.979 377.722 187.423 378.785 188.022L376.728 192.976C375.723 192.474 374.748 192.097 373.801 191.846C372.874 191.595 371.966 191.47 371.078 191.47C370.421 191.47 369.899 191.528 369.513 191.644C369.127 191.759 368.846 191.914 368.673 192.107C368.518 192.3 368.441 192.513 368.441 192.745C368.441 193.092 368.644 193.372 369.049 193.585C369.455 193.778 369.986 193.942 370.643 194.077C371.319 194.213 372.053 194.357 372.845 194.512C373.656 194.667 374.458 194.879 375.25 195.149C376.042 195.42 376.766 195.777 377.423 196.222C378.099 196.666 378.64 197.245 379.046 197.96C379.451 198.675 379.654 199.563 379.654 200.626C379.654 201.862 379.297 203.002 378.582 204.045C377.887 205.068 376.843 205.899 375.453 206.536C374.062 207.155 372.314 207.464 370.208 207.464Z" fill="#FFF8DC"/>
</g>
<g clip-path="url(#clip1_103_2)">
<path d="M580.002 288.569H572.102V296.427H580.002V288.569Z" fill="#D7EDF0"/>
<path d="M580.002 280.716H572.102V288.569H580.002V280.716Z" fill="#D7EDF0"/>
<path d="M580.002 272.858H572.102V280.716H580.002V272.858Z" fill="#D7EDF0"/>
<path d="M572.102 257.142H564.201V265H572.102V257.142Z" fill="#D7EDF0"/>
<path d="M572.102 272.858H564.201V280.716H572.102V272.858Z" fill="#D7EDF0"/>
<path d="M572.102 265H564.201V272.858H572.102V265Z" fill="#D7EDF0"/>
<path d="M556.305 241.427H548.404V249.289H556.305V241.427Z" fill="#D7EDF0"/>
<path d="M564.201 257.142H556.301V265H564.201V257.142Z" fill="#D7EDF0"/>
<path d="M564.201 249.289H556.301V257.142H564.201V249.289Z" fill="#D7EDF0"/>
<path d="M564.201 241.427H556.301V249.289H564.201V241.427Z" fill="#D7EDF0"/>
<path d="M532.598 241.427H524.697V249.289H532.598V241.427Z" fill="#D7EDF0"/>
<path d="M532.598 249.289H524.697V257.142H532.598V249.289Z" fill="#D7EDF0"/>
<path d="M532.598 257.142H524.697V265H532.598V257.142Z" fill="#D7EDF0"/>
<path d="M524.698 249.289H516.797V257.142H524.698V249.289Z" fill="#D7EDF0"/>
<path d="M524.698 241.427H516.797V249.289H524.698V241.427Z" fill="#D7EDF0"/>
<path d="M540.498 265H532.598V272.858H540.498V265Z" fill="#D7EDF0"/>
<path d="M540.498 257.142H532.598V265H540.498V257.142Z" fill="#D7EDF0"/>
<path d="M556.305 280.716H548.404V288.569H556.305V280.716Z" fill="#D7EDF0"/>
<path d="M548.399 265H540.494V272.858H548.399V265Z" fill="#D7EDF0"/>
<path d="M548.399 272.858H540.494V280.716H548.399V272.858Z" fill="#D7EDF0"/>
<path d="M564.201 288.569H556.301V296.427H564.201V288.569Z" fill="#D7EDF0"/>
<path d="M603.7 280.716H595.799V288.569H603.7V280.716Z" fill="#D7EDF0"/>
<path d="M611.6 272.858H603.699V280.716H611.6V272.858Z" fill="#D7EDF0"/>
<path d="M611.6 265H603.699V272.858H611.6V265Z" fill="#D7EDF0"/>
<path d="M619.496 257.142H611.596V265H619.496V257.142Z" fill="#D7EDF0"/>
<path d="M619.496 265H611.596V272.858H619.496V265Z" fill="#D7EDF0"/>
<path d="M627.401 249.289H619.496V257.142H627.401V249.289Z" fill="#D7EDF0"/>
<path d="M627.401 241.427H619.496V249.289H627.401V241.427Z" fill="#D7EDF0"/>
<path d="M619.496 249.289H611.596V257.142H619.496V249.289Z" fill="#D7EDF0"/>
<path d="M532.598 225.711H524.697V233.569H532.598V225.711Z" fill="#D7EDF0"/>
<path d="M572.102 225.711H564.201V233.569H572.102V225.711Z" fill="#D7EDF0"/>
<path d="M564.201 257.142H572.102V265V272.858H580.003H587.899V265V257.142H595.799V249.289V241.427H587.899H580.003H572.102H564.201V249.289V257.142Z" fill="#A0D8EB"/>
<path d="M540.498 249.289H532.598V257.142H540.498V249.289Z" fill="#A0D8EB"/>
<path d="M548.399 257.142H540.494V265H548.399V257.142Z" fill="#A0D8EB"/>
<path d="M556.305 272.858H548.404V280.716H556.305V272.858Z" fill="#A0D8EB"/>
<path d="M572.102 296.427H564.201V304.284H572.102V296.427Z" fill="#A0D8EB"/>
<path d="M627.401 257.142H619.496V265H627.401V257.142Z" fill="#A0D8EB"/>
<path d="M635.303 241.427H627.402V249.289H635.303V241.427Z" fill="#A0D8EB"/>
<path d="M619.496 225.711H611.596V233.569H619.496V225.711Z" fill="#A0D8EB"/>
<path d="M532.598 225.711V233.569H540.494H548.403V225.711H540.494H532.598Z" fill="#A0D8EB"/>
<path d="M587.898 217.858H580.002H572.102V225.711V233.569H580.002H587.898H595.799V225.711V217.858H587.898Z" fill="#A0D8EB"/>
<path d="M595.799 257.142H587.898V265V272.858H580.002V280.716V288.569V296.427H587.898V288.569V280.716H595.799V272.858V265H603.699V257.142V249.289H611.596V241.427H603.699H595.799V249.289V257.142Z" fill="#30BCE3"/>
<path d="M540.498 241.427H532.598V249.289H540.498V241.427Z" fill="#30BCE3"/>
<path d="M548.399 249.289H540.494V257.142H548.399V249.289Z" fill="#30BCE3"/>
<path d="M556.305 265H548.404V272.858H556.305V265Z" fill="#30BCE3"/>
<path d="M564.201 280.716H556.301V288.569H564.201V280.716Z" fill="#30BCE3"/>
<path d="M595.799 296.427H587.898V304.284H595.799V296.427Z" fill="#30BCE3"/>
<path d="M603.7 288.569H595.799V296.427H603.7V288.569Z" fill="#30BCE3"/>
<path d="M611.6 280.716H603.699V288.569H611.6V280.716Z" fill="#30BCE3"/>
<path d="M619.496 272.858H611.596V280.716H619.496V272.858Z" fill="#30BCE3"/>
<path d="M627.401 265H619.496V272.858H627.401V265Z" fill="#30BCE3"/>
<path d="M643.204 241.427H635.303V249.289H627.402V257.142V265H635.303V257.142H643.204V249.289V241.427Z" fill="#30BCE3"/>
<path d="M627.401 225.711H619.496V233.569H627.401H635.302H643.203V225.711H635.302H627.401Z" fill="#30BCE3"/>
<path d="M603.7 217.858H595.799V225.711H603.7H611.596V217.858H603.7Z" fill="#30BCE3"/>
<path d="M572.102 217.858H564.201V225.711H572.102V217.858Z" fill="#D7EDF0"/>
<path d="M556.305 217.858H548.404V225.711H556.305V217.858Z" fill="#D7EDF0"/>
<path d="M564.201 217.858H556.301V225.711H564.201V217.858Z" fill="#D7EDF0"/>
<path d="M524.698 257.142H516.797V265H524.698V257.142Z" fill="black"/>
<path d="M532.598 265H524.697V272.858H532.598V265Z" fill="black"/>
<path d="M540.498 272.858H532.598V280.716H540.498V272.858Z" fill="black"/>
<path d="M548.399 280.716H540.494V288.569H548.399V280.716Z" fill="black"/>
<path d="M556.305 288.569H548.404V296.427H556.305V288.569Z" fill="black"/>
<path d="M564.201 296.427H556.301V304.284H564.201V296.427Z" fill="black"/>
<path d="M603.7 296.427H595.799V304.284H603.7V296.427Z" fill="black"/>
<path d="M611.6 288.569H603.699V296.427H611.6V288.569Z" fill="black"/>
<path d="M619.496 280.716H611.596V288.569H619.496V280.716Z" fill="black"/>
<path d="M627.401 272.858H619.496V280.716H627.401V272.858Z" fill="black"/>
<path d="M635.303 265H627.402V272.858H635.303V265Z" fill="black"/>
<path d="M643.203 257.142H635.303V265H643.203V257.142Z" fill="black"/>
<path d="M603.699 257.142V265H611.595V257.142V249.289H603.699V257.142Z" fill="black"/>
<path d="M603.7 265H595.799V272.858V280.716H603.7V272.858V265Z" fill="black"/>
<path d="M587.898 280.716V288.569V296.427H595.799V288.569V280.716H587.898Z" fill="black"/>
<path d="M587.899 296.427H580.003H572.102V304.284H564.201V312.142H572.102V320H580.003H587.899V312.142H595.799V304.284H587.899V296.427Z" fill="black"/>
<path d="M572.102 280.716H564.201V288.569V296.427H572.102V288.569V280.716Z" fill="black"/>
<path d="M564.201 272.858V265H556.301V272.858V280.716H564.201V272.858Z" fill="black"/>
<path d="M548.404 265H556.3V257.142V249.289H548.404V257.142V265Z" fill="black"/>
<path d="M540.494 225.711H548.404V217.858H556.3H564.201H572.101H580.002H587.898H595.799H603.7H611.596V225.711H619.496H627.402H635.302H643.203V217.858H635.302V210H627.402H619.496H611.596H603.7H595.799H587.898H580.002H572.101H564.201H556.3H548.404H540.494H532.598V217.858H524.697V225.711H532.598H540.494Z" fill="black"/>
<path d="M651.099 225.711H643.203V233.569H635.302H627.402H619.497H611.596V225.711H603.7H595.799V233.569H587.898H580.002H572.102H564.201V225.711H556.3H548.404V233.569H540.494H532.598H524.698V225.711H516.797V233.569H508.901H501V241.427V249.289H508.901V257.142H516.797V249.289V241.427H524.698H532.598H540.494V249.289H548.404V241.427H556.3H564.201H572.102H580.002H587.898H595.799H603.7H611.596V249.289H619.497V241.427H627.402H635.302H643.203V249.289V257.142H651.099V249.289H659V241.427V233.569H651.099V225.711Z" fill="black"/>
</g>
<g clip-path="url(#clip2_103_2)">
<path d="M684.087 46.3533L681.338 45.9518L680.939 48.686L683.688 49.0875L684.087 46.3533Z" fill="#D7EDF0"/>
<path d="M684.486 43.6207L681.736 43.2192L681.337 45.9519L684.086 46.3534L684.486 43.6207Z" fill="#D7EDF0"/>
<path d="M684.886 40.8865L682.137 40.485L681.737 43.2192L684.486 43.6207L684.886 40.8865Z" fill="#D7EDF0"/>
<path d="M682.934 35.0167L680.185 34.6152L679.786 37.3494L682.535 37.7509L682.934 35.0167Z" fill="#D7EDF0"/>
<path d="M682.136 40.4851L679.387 40.0836L678.987 42.8177L681.736 43.2192L682.136 40.4851Z" fill="#D7EDF0"/>
<path d="M682.534 37.7509L679.785 37.3494L679.386 40.0836L682.135 40.4851L682.534 37.7509Z" fill="#D7EDF0"/>
<path d="M678.237 28.7456L675.488 28.3441L675.089 31.0798L677.838 31.4813L678.237 28.7456Z" fill="#D7EDF0"/>
<path d="M680.185 34.6152L677.436 34.2137L677.036 36.9479L679.785 37.3494L680.185 34.6152Z" fill="#D7EDF0"/>
<path d="M680.585 31.8826L677.836 31.4811L677.437 34.2138L680.186 34.6153L680.585 31.8826Z" fill="#D7EDF0"/>
<path d="M680.983 29.1469L678.234 28.7454L677.835 31.4811L680.584 31.8826L680.983 29.1469Z" fill="#D7EDF0"/>
<path d="M669.988 27.5409L667.238 27.1394L666.839 29.8751L669.588 30.2766L669.988 27.5409Z" fill="#D7EDF0"/>
<path d="M669.589 30.2766L666.84 29.8751L666.441 32.6077L669.19 33.0092L669.589 30.2766Z" fill="#D7EDF0"/>
<path d="M669.189 33.0092L666.439 32.6077L666.04 35.3419L668.789 35.7434L669.189 33.0092Z" fill="#D7EDF0"/>
<path d="M666.839 29.8751L664.09 29.4736L663.691 32.2062L666.44 32.6077L666.839 29.8751Z" fill="#D7EDF0"/>
<path d="M667.239 27.1394L664.49 26.7379L664.091 29.4736L666.84 29.8751L667.239 27.1394Z" fill="#D7EDF0"/>
<path d="M671.538 36.1449L668.789 35.7434L668.39 38.4776L671.139 38.8791L671.538 36.1449Z" fill="#D7EDF0"/>
<path d="M671.939 33.4107L669.189 33.0092L668.79 35.7434L671.539 36.1449L671.939 33.4107Z" fill="#D7EDF0"/>
<path d="M676.239 42.4165L673.49 42.015L673.091 44.7476L675.84 45.1491L676.239 42.4165Z" fill="#D7EDF0"/>
<path d="M674.288 36.5464L671.537 36.1447L671.138 38.8788L673.888 39.2806L674.288 36.5464Z" fill="#D7EDF0"/>
<path d="M673.889 39.2806L671.139 38.8788L670.739 41.613L673.49 42.0147L673.889 39.2806Z" fill="#D7EDF0"/>
<path d="M678.589 45.5504L675.84 45.1489L675.441 47.883L678.19 48.2845L678.589 45.5504Z" fill="#D7EDF0"/>
<path d="M692.732 44.825L689.982 44.4235L689.583 47.1561L692.332 47.5576L692.732 44.825Z" fill="#D7EDF0"/>
<path d="M695.88 42.4923L693.131 42.0908L692.732 44.825L695.481 45.2265L695.88 42.4923Z" fill="#D7EDF0"/>
<path d="M696.278 39.7582L693.529 39.3567L693.13 42.0909L695.879 42.4924L696.278 39.7582Z" fill="#D7EDF0"/>
<path d="M699.425 37.4253L696.676 37.0238L696.276 39.758L699.026 40.1595L699.425 37.4253Z" fill="#D7EDF0"/>
<path d="M699.026 40.1595L696.277 39.758L695.878 42.4921L698.627 42.8936L699.026 40.1595Z" fill="#D7EDF0"/>
<path d="M702.575 35.0944L699.824 34.6927L699.425 37.4253L702.176 37.827L702.575 35.0944Z" fill="#D7EDF0"/>
<path d="M702.975 32.3587L700.224 31.957L699.825 34.6927L702.576 35.0944L702.975 32.3587Z" fill="#D7EDF0"/>
<path d="M699.825 34.6927L697.076 34.2912L696.677 37.0238L699.426 37.4253L699.825 34.6927Z" fill="#D7EDF0"/>
<path d="M670.786 22.0726L668.037 21.6711L667.638 24.4052L670.387 24.8067L670.786 22.0726Z" fill="#D7EDF0"/>
<path d="M684.532 24.0801L681.783 23.6786L681.384 26.4128L684.133 26.8143L684.532 24.0801Z" fill="#D7EDF0"/>
<path d="M680.186 34.6152L682.935 35.0167L682.535 37.7509L682.136 40.4851L684.885 40.8866L687.633 41.2879L688.032 38.5537L688.431 35.8195L691.181 36.221L691.58 33.4884L691.979 30.7527L689.23 30.3512L686.483 29.9499L683.733 29.5484L680.984 29.1469L680.585 31.8826L680.186 34.6152Z" fill="#A0D8EB"/>
<path d="M672.337 30.6781L669.588 30.2766L669.189 33.0092L671.938 33.4107L672.337 30.6781Z" fill="#A0D8EB"/>
<path d="M674.686 33.8123L671.936 33.4105L671.536 36.1447L674.287 36.5464L674.686 33.8123Z" fill="#A0D8EB"/>
<path d="M676.64 39.6823L673.891 39.2808L673.491 42.0149L676.24 42.4164L676.64 39.6823Z" fill="#A0D8EB"/>
<path d="M680.939 48.686L678.189 48.2845L677.79 51.0187L680.539 51.4202L680.939 48.686Z" fill="#A0D8EB"/>
<path d="M702.176 37.827L699.426 37.4253L699.026 40.1595L701.777 40.5612L702.176 37.827Z" fill="#A0D8EB"/>
<path d="M705.724 32.7602L702.975 32.3587L702.575 35.0944L705.324 35.4959L705.724 32.7602Z" fill="#A0D8EB"/>
<path d="M701.023 26.4886L698.273 26.0871L697.874 28.8213L700.623 29.2228L701.023 26.4886Z" fill="#A0D8EB"/>
<path d="M670.787 22.0726L670.388 24.8067L673.135 25.208L675.888 25.61L676.287 22.8758L673.535 22.4738L670.787 22.0726Z" fill="#A0D8EB"/>
<path d="M690.428 22.1502L687.681 21.749L684.932 21.3475L684.533 24.0801L684.133 26.8143L686.882 27.2158L689.63 27.617L692.379 28.0185L692.778 25.2844L693.177 22.5518L690.428 22.1502Z" fill="#A0D8EB"/>
<path d="M691.18 36.221L688.431 35.8195L688.032 38.5537L687.633 41.2878L684.885 40.8866L684.486 43.6207L684.087 46.3533L683.687 49.0875L686.435 49.4888L686.834 46.7546L687.233 44.022L689.982 44.4235L690.382 41.6893L690.781 38.9552L693.53 39.3567L693.929 36.6225L694.329 33.8899L697.076 34.2912L697.476 31.5554L694.728 31.1542L691.979 30.7527L691.579 33.4884L691.18 36.221Z" fill="#30BCE3"/>
<path d="M672.737 27.9424L669.988 27.5409L669.589 30.2766L672.338 30.6781L672.737 27.9424Z" fill="#30BCE3"/>
<path d="M675.087 31.0796L672.336 30.6779L671.937 33.4105L674.687 33.8122L675.087 31.0796Z" fill="#30BCE3"/>
<path d="M677.038 36.9481L674.289 36.5466L673.89 39.2808L676.639 39.6823L677.038 36.9481Z" fill="#30BCE3"/>
<path d="M678.987 42.8177L676.238 42.4162L675.839 45.1488L678.588 45.5503L678.987 42.8177Z" fill="#30BCE3"/>
<path d="M689.185 49.8903L686.436 49.4888L686.036 52.2229L688.785 52.6244L689.185 49.8903Z" fill="#30BCE3"/>
<path d="M692.333 47.5576L689.584 47.1561L689.185 49.8903L691.934 50.2918L692.333 47.5576Z" fill="#30BCE3"/>
<path d="M695.48 45.2265L692.73 44.825L692.331 47.5576L695.08 47.9591L695.48 45.2265Z" fill="#30BCE3"/>
<path d="M698.628 42.8936L695.879 42.4921L695.48 45.2263L698.229 45.6278L698.628 42.8936Z" fill="#30BCE3"/>
<path d="M701.778 40.5612L699.027 40.1595L698.628 42.8937L701.379 43.2954L701.778 40.5612Z" fill="#30BCE3"/>
<path d="M708.473 33.1617L705.724 32.7602L705.324 35.4959L702.575 35.0944L702.176 37.827L701.777 40.5612L704.526 40.9627L704.925 38.2285L707.674 38.63L708.073 35.8974L708.473 33.1617Z" fill="#30BCE3"/>
<path d="M703.774 26.8904L701.023 26.4886L700.624 29.2228L703.375 29.6245L706.124 30.026L708.873 30.4275L709.272 27.6934L706.523 27.2919L703.774 26.8904Z" fill="#30BCE3"/>
<path d="M695.925 22.9533L693.176 22.5518L692.777 25.2844L695.526 25.6859L698.273 26.0871L698.672 23.3545L695.925 22.9533Z" fill="#30BCE3"/>
<path d="M684.931 21.3475L682.182 20.946L681.783 23.6786L684.532 24.0801L684.931 21.3475Z" fill="#D7EDF0"/>
<path d="M679.435 20.5447L676.686 20.1432L676.286 22.8758L679.036 23.2773L679.435 20.5447Z" fill="#D7EDF0"/>
<path d="M682.181 20.9459L679.432 20.5444L679.033 23.277L681.782 23.6785L682.181 20.9459Z" fill="#D7EDF0"/>
<path d="M666.44 32.6077L663.691 32.2062L663.292 34.9404L666.041 35.3419L666.44 32.6077Z" fill="black"/>
<path d="M668.79 35.7434L666.041 35.3419L665.642 38.076L668.391 38.4775L668.79 35.7434Z" fill="black"/>
<path d="M671.14 38.879L668.391 38.4775L667.991 41.2117L670.74 41.6132L671.14 38.879Z" fill="black"/>
<path d="M673.489 42.0147L670.738 41.613L670.339 44.3456L673.09 44.7473L673.489 42.0147Z" fill="black"/>
<path d="M675.841 45.1491L673.092 44.7476L672.692 47.4817L675.441 47.8832L675.841 45.1491Z" fill="black"/>
<path d="M678.189 48.2845L675.439 47.883L675.04 50.6172L677.789 51.0187L678.189 48.2845Z" fill="black"/>
<path d="M691.933 50.2918L689.184 49.8903L688.784 52.6245L691.533 53.026L691.933 50.2918Z" fill="black"/>
<path d="M695.081 47.9591L692.332 47.5576L691.933 50.2918L694.682 50.6933L695.081 47.9591Z" fill="black"/>
<path d="M698.228 45.6278L695.479 45.2263L695.08 47.9589L697.829 48.3604L698.228 45.6278Z" fill="black"/>
<path d="M701.378 43.2953L698.627 42.8936L698.228 45.6278L700.978 46.0295L701.378 43.2953Z" fill="black"/>
<path d="M704.526 40.9627L701.777 40.5612L701.378 43.2954L704.127 43.6969L704.526 40.9627Z" fill="black"/>
<path d="M707.675 38.63L704.926 38.2285L704.526 40.9627L707.275 41.3642L707.675 38.63Z" fill="black"/>
<path d="M693.929 36.6225L693.53 39.3567L696.277 39.7579L696.677 37.0238L697.076 34.2912L694.328 33.8899L693.929 36.6225Z" fill="black"/>
<path d="M693.53 39.3567L690.781 38.9552L690.382 41.6894L689.983 44.4235L692.732 44.825L693.131 42.0909L693.53 39.3567Z" fill="black"/>
<path d="M687.232 44.022L686.833 46.7546L686.434 49.4888L689.183 49.8903L689.582 47.1561L689.982 44.4235L687.232 44.022Z" fill="black"/>
<path d="M686.435 49.4888L683.688 49.0875L680.939 48.686L680.539 51.4202L677.79 51.0187L677.391 53.7528L680.14 54.1543L679.741 56.8885L682.49 57.29L685.237 57.6913L685.637 54.9571L688.386 55.3586L688.785 52.6244L686.036 52.2229L686.435 49.4888Z" fill="black"/>
<path d="M681.737 43.2193L678.988 42.8177L678.589 45.5504L678.19 48.2845L680.939 48.686L681.338 45.9519L681.737 43.2193Z" fill="black"/>
<path d="M679.387 40.0836L679.786 37.3494L677.037 36.9479L676.638 39.6821L676.238 42.4162L678.987 42.8177L679.387 40.0836Z" fill="black"/>
<path d="M674.289 36.5466L677.037 36.9479L677.436 34.2137L677.835 31.4811L675.088 31.0798L674.689 33.8124L674.289 36.5466Z" fill="black"/>
<path d="M673.534 22.4738L676.286 22.8758L676.685 20.1432L679.433 20.5445L682.182 20.946L684.931 21.3475L687.68 21.749L690.428 22.1502L693.177 22.5517L695.926 22.9532L698.673 23.3545L698.274 26.0871L701.023 26.4886L703.774 26.8904L706.523 27.2919L709.272 27.6934L709.671 24.9608L706.922 24.5593L707.322 21.8251L704.573 21.4236L701.822 21.0219L699.073 20.6204L696.325 20.2191L693.576 19.8176L690.827 19.4161L688.08 19.0148L685.33 18.6133L682.581 18.2118L679.832 17.8103L677.085 17.409L674.333 17.0071L671.585 16.6058L671.186 19.34L668.437 18.9385L668.038 21.6711L670.787 22.0726L673.534 22.4738Z" fill="black"/>
<path d="M712.019 28.0947L709.272 27.6934L708.872 30.4275L706.123 30.026L703.374 29.6245L700.623 29.2228L697.874 28.8213L698.274 26.0871L695.526 25.6859L692.777 25.2844L692.378 28.0185L689.629 27.617L686.881 27.2158L684.132 26.8143L681.383 26.4128L681.782 23.6786L679.033 23.2771L676.286 22.8758L675.886 25.61L673.134 25.208L670.386 24.8067L667.637 24.4052L668.037 21.6711L665.288 21.2696L664.888 24.0037L662.141 23.6025L659.392 23.201L658.992 25.9351L658.593 28.6708L661.342 29.0724L660.943 31.805L663.69 32.2062L664.089 29.4736L664.489 26.7379L667.238 27.1394L669.987 27.5409L672.735 27.9422L672.335 30.6779L675.087 31.0799L675.487 28.3441L678.234 28.7454L680.984 29.1469L683.733 29.5484L686.482 29.9499L689.229 30.3512L691.978 30.7527L694.727 31.1542L697.475 31.5555L697.075 34.2912L699.825 34.6927L700.224 31.957L702.975 32.3587L705.724 32.7602L708.473 33.1617L708.073 35.8974L707.674 38.63L710.422 39.0313L710.821 36.2987L713.57 36.7002L713.97 33.9645L714.369 31.2303L711.62 30.8288L712.019 28.0947Z" fill="black"/>
</g>
<g clip-path="url(#clip3_103_2)">
<path d="M839.389 125.017L831.746 123.016L829.756 130.618L837.399 132.619L839.389 125.017Z" fill="#D7EDF0"/>
<path d="M841.377 117.42L833.734 115.419L831.745 123.016L839.388 125.017L841.377 117.42Z" fill="#D7EDF0"/>
<path d="M843.368 109.819L835.725 107.818L833.734 115.419L841.377 117.42L843.368 109.819Z" fill="#D7EDF0"/>
<path d="M839.705 92.6145L832.062 90.6133L830.072 98.2148L837.715 100.216L839.705 92.6145Z" fill="#D7EDF0"/>
<path d="M835.725 107.818L828.082 105.816L826.092 113.418L833.735 115.419L835.725 107.818Z" fill="#D7EDF0"/>
<path d="M837.715 100.216L830.072 98.2148L828.082 105.816L835.725 107.818L837.715 100.216Z" fill="#D7EDF0"/>
<path d="M828.405 73.4102L820.762 71.409L818.77 79.0149L826.413 81.016L828.405 73.4102Z" fill="#D7EDF0"/>
<path d="M832.063 90.6133L824.42 88.6121L822.43 96.2137L830.073 98.2149L832.063 90.6133Z" fill="#D7EDF0"/>
<path d="M834.051 83.0161L826.408 81.0149L824.419 88.6121L832.062 90.6133L834.051 83.0161Z" fill="#D7EDF0"/>
<path d="M836.043 75.4102L828.4 73.409L826.409 81.0149L834.052 83.016L836.043 75.4102Z" fill="#D7EDF0"/>
<path d="M805.471 67.4054L797.828 65.4042L795.837 73.0101L803.48 75.0113L805.471 67.4054Z" fill="#D7EDF0"/>
<path d="M803.479 75.0113L795.836 73.0101L793.847 80.6073L801.49 82.6085L803.479 75.0113Z" fill="#D7EDF0"/>
<path d="M801.491 82.6085L793.848 80.6073L791.857 88.2088L799.5 90.21L801.491 82.6085Z" fill="#D7EDF0"/>
<path d="M795.836 73.0101L788.193 71.0089L786.204 78.6061L793.847 80.6073L795.836 73.0101Z" fill="#D7EDF0"/>
<path d="M797.829 65.4043L790.186 63.4031L788.194 71.0089L795.837 73.0101L797.829 65.4043Z" fill="#D7EDF0"/>
<path d="M807.143 92.2112L799.5 90.2101L797.51 97.8116L805.153 99.8128L807.143 92.2112Z" fill="#D7EDF0"/>
<path d="M809.133 84.6097L801.49 82.6085L799.5 90.2101L807.143 92.2112L809.133 84.6097Z" fill="#D7EDF0"/>
<path d="M818.454 111.418L810.811 109.417L808.821 117.014L816.464 119.015L818.454 111.418Z" fill="#D7EDF0"/>
<path d="M814.786 94.2124L807.139 92.2101L805.148 99.8116L812.796 101.814L814.786 94.2124Z" fill="#D7EDF0"/>
<path d="M812.796 101.814L805.148 99.8116L803.158 107.413L810.805 109.416L812.796 101.814Z" fill="#D7EDF0"/>
<path d="M824.102 121.015L816.459 119.014L814.469 126.615L822.112 128.617L824.102 121.015Z" fill="#D7EDF0"/>
<path d="M864.301 123.423L856.658 121.422L854.669 129.019L862.312 131.02L864.301 123.423Z" fill="#D7EDF0"/>
<path d="M873.936 117.822L866.293 115.821L864.303 123.423L871.946 125.424L873.936 117.822Z" fill="#D7EDF0"/>
<path d="M875.926 110.221L868.283 108.22L866.293 115.821L873.936 117.822L875.926 110.221Z" fill="#D7EDF0"/>
<path d="M885.555 104.619L877.912 102.618L875.922 110.22L883.565 112.221L885.555 104.619Z" fill="#D7EDF0"/>
<path d="M883.565 112.221L875.922 110.22L873.932 117.821L881.575 119.822L883.565 112.221Z" fill="#D7EDF0"/>
<path d="M895.192 99.0245L887.545 97.0222L885.556 104.619L893.203 106.622L895.192 99.0245Z" fill="#D7EDF0"/>
<path d="M897.183 91.4187L889.535 89.4163L887.544 97.0222L895.191 99.0245L897.183 91.4187Z" fill="#D7EDF0"/>
<path d="M887.543 97.0221L879.9 95.0209L877.911 102.618L885.554 104.619L887.543 97.0221Z" fill="#D7EDF0"/>
<path d="M809.452 52.2024L801.809 50.2012L799.818 57.8027L807.461 59.8039L809.452 52.2024Z" fill="#D7EDF0"/>
<path d="M847.667 62.2083L840.024 60.2072L838.033 67.8087L845.676 69.8099L847.667 62.2083Z" fill="#D7EDF0"/>
<path d="M832.062 90.6133L839.705 92.6145L837.715 100.216L835.725 107.818L843.368 109.819L851.006 111.819L852.997 104.217L854.987 96.6157L862.63 98.6169L864.619 91.0197L866.611 83.4139L858.968 81.4127L851.329 79.4126L843.686 77.4114L836.043 75.4102L834.052 83.0161L832.062 90.6133Z" fill="#A0D8EB"/>
<path d="M811.122 77.0125L803.479 75.0113L801.489 82.6085L809.132 84.6097L811.122 77.0125Z" fill="#A0D8EB"/>
<path d="M816.776 86.6109L809.129 84.6086L807.139 92.2101L814.786 94.2124L816.776 86.6109Z" fill="#A0D8EB"/>
<path d="M820.444 103.816L812.801 101.815L810.81 109.417L818.453 111.418L820.444 103.816Z" fill="#A0D8EB"/>
<path d="M829.754 130.618L822.111 128.617L820.121 136.218L827.764 138.219L829.754 130.618Z" fill="#A0D8EB"/>
<path d="M893.202 106.622L885.555 104.619L883.564 112.221L891.212 114.223L893.202 106.622Z" fill="#A0D8EB"/>
<path d="M904.827 93.4198L897.184 91.4186L895.192 99.0245L902.835 101.026L904.827 93.4198Z" fill="#A0D8EB"/>
<path d="M893.516 74.2132L885.873 72.212L883.883 79.8136L891.526 81.8148L893.516 74.2132Z" fill="#A0D8EB"/>
<path d="M809.451 52.2024L807.461 59.8039L815.1 61.804L822.751 63.8075L824.742 56.2059L817.09 54.2024L809.451 52.2024Z" fill="#A0D8EB"/>
<path d="M864.938 58.6124L857.299 56.6123L849.656 54.6111L847.667 62.2084L845.677 69.8099L853.32 71.8111L860.958 73.8111L868.601 75.8123L870.592 68.2108L872.581 60.6136L864.938 58.6124Z" fill="#A0D8EB"/>
<path d="M862.629 98.6169L854.986 96.6157L852.996 104.217L851.005 111.819L843.367 109.819L841.376 117.42L839.387 125.017L837.397 132.619L845.036 134.619L847.026 127.018L849.015 119.42L856.658 121.422L858.649 113.82L860.639 106.218L868.282 108.22L870.272 100.618L872.261 93.0209L879.9 95.0209L881.892 87.4151L874.253 85.415L866.61 83.4138L864.618 91.0197L862.629 98.6169Z" fill="#30BCE3"/>
<path d="M813.114 69.4067L805.471 67.4055L803.479 75.0113L811.122 77.0125L813.114 69.4067Z" fill="#30BCE3"/>
<path d="M818.765 79.0137L811.117 77.0114L809.128 84.6086L816.775 86.6109L818.765 79.0137Z" fill="#30BCE3"/>
<path d="M822.434 96.2148L814.791 94.2136L812.801 101.815L820.444 103.816L822.434 96.2148Z" fill="#30BCE3"/>
<path d="M826.092 113.418L818.449 111.417L816.46 119.014L824.103 121.015L826.092 113.418Z" fill="#30BCE3"/>
<path d="M852.68 136.62L845.037 134.619L843.047 142.221L850.69 144.222L852.68 136.62Z" fill="#30BCE3"/>
<path d="M862.313 131.02L854.67 129.019L852.68 136.62L860.323 138.621L862.313 131.02Z" fill="#30BCE3"/>
<path d="M871.946 125.424L864.303 123.423L862.314 131.02L869.957 133.021L871.946 125.424Z" fill="#30BCE3"/>
<path d="M881.575 119.822L873.932 117.821L871.941 125.423L879.584 127.424L881.575 119.822Z" fill="#30BCE3"/>
<path d="M891.212 114.223L883.564 112.221L881.574 119.822L889.222 121.825L891.212 114.223Z" fill="#30BCE3"/>
<path d="M912.47 95.421L904.827 93.4198L902.835 101.026L895.192 99.0245L893.203 106.622L891.213 114.223L898.856 116.224L900.846 108.623L908.489 110.624L910.478 103.027L912.47 95.421Z" fill="#30BCE3"/>
<path d="M901.163 76.2156L893.516 74.2133L891.525 81.8148L899.173 83.8171L906.816 85.8183L914.459 87.8195L916.449 80.218L908.806 78.2168L901.163 76.2156Z" fill="#30BCE3"/>
<path d="M880.223 62.6148L872.58 60.6136L870.591 68.2108L878.234 70.212L885.873 72.212L887.862 64.6148L880.223 62.6148Z" fill="#30BCE3"/>
<path d="M849.657 54.6111L842.014 52.6099L840.024 60.2071L847.668 62.2083L849.657 54.6111Z" fill="#D7EDF0"/>
<path d="M834.373 50.6099L826.73 48.6087L824.741 56.2059L832.384 58.2071L834.373 50.6099Z" fill="#D7EDF0"/>
<path d="M842.012 52.61L834.369 50.6088L832.38 58.206L840.023 60.2072L842.012 52.61Z" fill="#D7EDF0"/>
<path d="M793.848 80.6073L786.205 78.6061L784.215 86.2077L791.858 88.2089L793.848 80.6073Z" fill="black"/>
<path d="M799.5 90.2101L791.857 88.2089L789.867 95.8104L797.51 97.8116L799.5 90.2101Z" fill="black"/>
<path d="M805.153 99.8128L797.51 97.8116L795.519 105.413L803.162 107.414L805.153 99.8128Z" fill="black"/>
<path d="M810.806 109.415L803.158 107.413L801.169 115.01L808.816 117.013L810.806 109.415Z" fill="black"/>
<path d="M816.463 119.015L808.82 117.014L806.83 124.615L814.473 126.617L816.463 119.015Z" fill="black"/>
<path d="M822.112 128.617L814.469 126.615L812.478 134.217L820.121 136.218L822.112 128.617Z" fill="black"/>
<path d="M860.323 138.621L852.68 136.62L850.689 144.222L858.332 146.223L860.323 138.621Z" fill="black"/>
<path d="M869.956 133.021L862.312 131.02L860.322 138.621L867.965 140.623L869.956 133.021Z" fill="black"/>
<path d="M879.584 127.424L871.941 125.423L869.952 133.02L877.595 135.021L879.584 127.424Z" fill="black"/>
<path d="M889.222 121.825L881.574 119.822L879.584 127.424L887.231 129.426L889.222 121.825Z" fill="black"/>
<path d="M898.854 116.224L891.211 114.223L889.221 121.825L896.864 123.826L898.854 116.224Z" fill="black"/>
<path d="M908.489 110.624L900.846 108.623L898.855 116.224L906.498 118.226L908.489 110.624Z" fill="black"/>
<path d="M870.273 100.618L868.282 108.22L875.921 110.22L877.911 102.618L879.9 95.0209L872.262 93.0209L870.273 100.618Z" fill="black"/>
<path d="M868.284 108.22L860.641 106.218L858.65 113.82L856.66 121.422L864.303 123.423L866.293 115.821L868.284 108.22Z" fill="black"/>
<path d="M849.016 119.42L847.026 127.018L845.036 134.619L852.679 136.62L854.669 129.019L856.659 121.422L849.016 119.42Z" fill="black"/>
<path d="M845.036 134.619L837.397 132.619L829.754 130.618L827.764 138.219L820.121 136.218L818.131 143.82L825.774 145.821L823.783 153.422L831.426 155.424L839.065 157.424L841.055 149.822L848.698 151.823L850.689 144.222L843.046 142.221L845.036 134.619Z" fill="black"/>
<path d="M833.735 115.419L826.092 113.418L824.103 121.015L822.112 128.617L829.755 130.618L831.746 123.016L833.735 115.419Z" fill="black"/>
<path d="M828.082 105.816L830.073 98.2148L822.43 96.2136L820.439 103.815L818.449 111.417L826.092 113.418L828.082 105.816Z" fill="black"/>
<path d="M814.79 94.2136L822.429 96.2136L824.419 88.6121L826.408 81.0149L818.77 79.0148L816.78 86.612L814.79 94.2136Z" fill="black"/>
<path d="M817.089 54.2024L824.741 56.2059L826.73 48.6087L834.369 50.6087L842.012 52.6099L849.655 54.6111L857.298 56.6123L864.937 58.6124L872.58 60.6136L880.223 62.6148L887.861 64.6148L885.872 72.212L893.515 74.2132L901.163 76.2156L908.806 78.2168L916.449 80.2179L918.438 72.6207L910.795 70.6195L912.785 63.018L905.142 61.0168L897.495 59.0145L889.852 57.0133L882.213 55.0132L874.57 53.012L866.927 51.0108L859.288 49.0108L851.645 47.0096L844.002 45.0084L836.359 43.0072L828.721 41.0072L821.069 39.0037L813.43 37.0036L811.44 44.6052L803.797 42.604L801.808 50.2012L809.451 52.2024L817.089 54.2024Z" fill="black"/>
<path d="M924.087 82.218L916.449 80.2179L914.458 87.8195L906.815 85.8183L899.172 83.8171L891.525 81.8148L883.882 79.8136L885.872 72.212L878.233 70.212L870.59 68.2108L868.6 75.8123L860.957 73.8111L853.318 71.8111L845.675 69.8099L838.032 67.8087L840.023 60.2071L832.38 58.2059L824.741 56.2059L822.751 63.8074L815.099 61.804L807.46 59.8039L799.817 57.8027L801.808 50.2012L794.165 48.2L792.174 55.8015L784.536 53.8015L776.892 51.8003L774.902 59.4018L772.911 67.0077L780.554 69.0088L778.565 76.6061L786.203 78.6061L788.192 71.0089L790.184 63.403L797.827 65.4042L805.47 67.4054L813.109 69.4055L811.117 77.0113L818.769 79.0148L820.76 71.409L828.399 73.409L836.042 75.4102L843.685 77.4114L851.328 79.4126L858.967 81.4126L866.61 83.4138L874.253 85.415L881.892 87.4151L879.9 95.0209L887.543 97.0221L889.535 89.4163L897.182 91.4186L904.825 93.4198L912.468 95.421L910.477 103.027L908.487 110.624L916.126 112.624L918.115 105.027L925.758 107.028L927.75 99.4222L929.74 91.8207L922.097 89.8195L924.087 82.218Z" fill="black"/>
</g>
<g clip-path="url(#clip4_103_2)">
<path d="M724.689 193.537L720.119 195.346L721.918 199.892L726.489 198.083L724.689 193.537Z" fill="#D7EDF0"/>
<path d="M722.893 188.994L718.322 190.803L720.12 195.346L724.691 193.537L722.893 188.994Z" fill="#D7EDF0"/>
<path d="M721.092 184.449L716.521 186.258L718.321 190.803L722.891 188.994L721.092 184.449Z" fill="#D7EDF0"/>
<path d="M712.924 177.167L708.354 178.976L710.153 183.521L714.723 181.712L712.924 177.167Z" fill="#D7EDF0"/>
<path d="M716.521 186.258L711.951 188.067L713.75 192.612L718.321 190.803L716.521 186.258Z" fill="#D7EDF0"/>
<path d="M714.723 181.712L710.152 183.521L711.951 188.067L716.522 186.258L714.723 181.712Z" fill="#D7EDF0"/>
<path d="M700.188 171.693L695.617 173.502L697.418 178.05L701.988 176.241L700.188 171.693Z" fill="#D7EDF0"/>
<path d="M708.354 178.976L703.783 180.785L705.582 185.33L710.153 183.521L708.354 178.976Z" fill="#D7EDF0"/>
<path d="M706.555 174.433L701.984 176.242L703.782 180.785L708.353 178.976L706.555 174.433Z" fill="#D7EDF0"/>
<path d="M704.756 169.885L700.186 171.694L701.986 176.242L706.556 174.433L704.756 169.885Z" fill="#D7EDF0"/>
<path d="M686.475 177.121L681.904 178.93L683.704 183.478L688.275 181.669L686.475 177.121Z" fill="#D7EDF0"/>
<path d="M688.273 181.669L683.703 183.478L685.501 188.021L690.072 186.212L688.273 181.669Z" fill="#D7EDF0"/>
<path d="M690.072 186.212L685.502 188.021L687.301 192.566L691.872 190.757L690.072 186.212Z" fill="#D7EDF0"/>
<path d="M683.703 183.478L679.133 185.287L680.931 189.829L685.501 188.021L683.703 183.478Z" fill="#D7EDF0"/>
<path d="M681.904 178.93L677.334 180.738L679.134 185.287L683.704 183.478L681.904 178.93Z" fill="#D7EDF0"/>
<path d="M696.441 188.948L691.871 190.757L693.67 195.303L698.241 193.494L696.441 188.948Z" fill="#D7EDF0"/>
<path d="M694.643 184.403L690.072 186.212L691.872 190.757L696.442 188.948L694.643 184.403Z" fill="#D7EDF0"/>
<path d="M709.184 194.42L704.613 196.229L706.411 200.772L710.982 198.963L709.184 194.42Z" fill="#D7EDF0"/>
<path d="M701.012 187.139L696.439 188.949L698.238 193.495L702.811 191.685L701.012 187.139Z" fill="#D7EDF0"/>
<path d="M702.811 191.685L698.238 193.495L700.038 198.04L704.61 196.23L702.811 191.685Z" fill="#D7EDF0"/>
<path d="M715.549 197.155L710.979 198.964L712.778 203.51L717.348 201.701L715.549 197.155Z" fill="#D7EDF0"/>
<path d="M736.6 183.569L732.029 185.378L733.827 189.92L738.398 188.111L736.6 183.569Z" fill="#D7EDF0"/>
<path d="M739.371 177.214L734.801 179.023L736.6 183.569L741.17 181.76L739.371 177.214Z" fill="#D7EDF0"/>
<path d="M737.572 172.669L733.002 174.478L734.801 179.023L739.371 177.214L737.572 172.669Z" fill="#D7EDF0"/>
<path d="M740.34 166.315L735.77 168.124L737.569 172.67L742.139 170.861L740.34 166.315Z" fill="#D7EDF0"/>
<path d="M742.141 170.861L737.57 172.67L739.369 177.215L743.94 175.406L742.141 170.861Z" fill="#D7EDF0"/>
<path d="M743.116 159.962L738.543 161.772L740.341 166.315L744.914 164.505L743.116 159.962Z" fill="#D7EDF0"/>
<path d="M741.315 155.414L736.742 157.224L738.543 161.772L743.115 159.962L741.315 155.414Z" fill="#D7EDF0"/>
<path d="M738.543 161.772L733.973 163.581L735.771 168.124L740.341 166.315L738.543 161.772Z" fill="#D7EDF0"/>
<path d="M682.875 168.03L678.305 169.839L680.104 174.384L684.674 172.575L682.875 168.03Z" fill="#D7EDF0"/>
<path d="M705.727 158.985L701.156 160.794L702.955 165.339L707.526 163.53L705.727 158.985Z" fill="#D7EDF0"/>
<path d="M708.354 178.976L712.924 177.167L714.724 181.712L716.523 186.258L721.093 184.449L725.661 182.641L723.862 178.095L722.062 173.55L726.633 171.741L724.835 167.198L723.035 162.65L718.464 164.459L713.896 166.267L709.326 168.076L704.756 169.885L706.556 174.433L708.354 178.976Z" fill="#A0D8EB"/>
<path d="M692.844 179.86L688.273 181.669L690.072 186.212L694.642 184.403L692.844 179.86Z" fill="#A0D8EB"/>
<path d="M699.214 182.594L694.641 184.404L696.44 188.949L701.013 187.139L699.214 182.594Z" fill="#A0D8EB"/>
<path d="M707.385 189.875L702.814 191.684L704.614 196.229L709.184 194.42L707.385 189.875Z" fill="#A0D8EB"/>
<path d="M721.918 199.892L717.348 201.701L719.147 206.246L723.717 204.437L721.918 199.892Z" fill="#A0D8EB"/>
<path d="M744.913 164.505L740.34 166.315L742.139 170.861L746.712 169.051L744.913 164.505Z" fill="#A0D8EB"/>
<path d="M745.885 153.605L741.314 155.414L743.115 159.962L747.685 158.153L745.885 153.605Z" fill="#A0D8EB"/>
<path d="M733.145 148.133L728.574 149.942L730.373 154.488L734.944 152.679L733.145 148.133Z" fill="#A0D8EB"/>
<path d="M682.875 168.03L684.674 172.575L689.242 170.767L693.817 168.956L692.018 164.411L687.443 166.222L682.875 168.03Z" fill="#A0D8EB"/>
<path d="M713.068 150.825L708.5 152.633L703.93 154.442L705.728 158.985L707.527 163.53L712.097 161.721L716.665 159.913L721.235 158.104L719.436 153.559L717.638 149.016L713.068 150.825Z" fill="#A0D8EB"/>
<path d="M726.633 171.741L722.062 173.55L723.862 178.095L725.661 182.641L721.093 184.449L722.892 188.994L724.69 193.537L726.489 198.083L731.057 196.275L729.258 191.729L727.46 187.186L732.03 185.377L730.231 180.832L728.432 176.286L733.002 174.478L731.203 169.932L729.405 165.389L733.973 163.581L732.173 159.033L727.605 160.841L723.035 162.65L724.835 167.198L726.633 171.741Z" fill="#30BCE3"/>
<path d="M691.045 175.312L686.475 177.121L688.275 181.669L692.845 179.86L691.045 175.312Z" fill="#30BCE3"/>
<path d="M697.415 178.051L692.842 179.861L694.64 184.404L699.213 182.594L697.415 178.051Z" fill="#30BCE3"/>
<path d="M705.586 185.329L701.016 187.138L702.815 191.684L707.385 189.875L705.586 185.329Z" fill="#30BCE3"/>
<path d="M713.752 192.612L709.182 194.421L710.98 198.964L715.55 197.155L713.752 192.612Z" fill="#30BCE3"/>
<path d="M735.627 194.466L731.057 196.275L732.856 200.82L737.426 199.011L735.627 194.466Z" fill="#30BCE3"/>
<path d="M738.398 188.111L733.828 189.92L735.627 194.466L740.198 192.657L738.398 188.111Z" fill="#30BCE3"/>
<path d="M741.17 181.76L736.6 183.569L738.398 188.111L742.968 186.303L741.17 181.76Z" fill="#30BCE3"/>
<path d="M743.939 175.406L739.369 177.215L741.168 181.761L745.739 179.952L743.939 175.406Z" fill="#30BCE3"/>
<path d="M746.714 169.051L742.141 170.861L743.94 175.406L748.513 173.596L746.714 169.051Z" fill="#30BCE3"/>
<path d="M750.455 151.796L745.885 153.605L747.685 158.153L743.115 159.962L744.913 164.505L746.712 169.051L751.282 167.242L749.483 162.696L754.053 160.887L752.255 156.344L750.455 151.796Z" fill="#30BCE3"/>
<path d="M737.717 146.323L733.145 148.133L734.944 152.679L739.517 150.869L744.087 149.06L748.657 147.251L746.858 142.705L742.288 144.514L737.717 146.323Z" fill="#30BCE3"/>
<path d="M722.209 147.207L717.639 149.016L719.437 153.559L724.007 151.75L728.575 149.942L726.777 145.399L722.209 147.207Z" fill="#30BCE3"/>
<path d="M703.93 154.442L699.359 156.251L701.157 160.794L705.728 158.985L703.93 154.442Z" fill="#D7EDF0"/>
<path d="M694.791 158.059L690.221 159.868L692.019 164.411L696.589 162.602L694.791 158.059Z" fill="#D7EDF0"/>
<path d="M699.359 156.251L694.789 158.06L696.587 162.603L701.157 160.794L699.359 156.251Z" fill="#D7EDF0"/>
<path d="M685.502 188.021L680.932 189.829L682.731 194.375L687.301 192.566L685.502 188.021Z" fill="black"/>
<path d="M691.871 190.757L687.301 192.566L689.1 197.112L693.67 195.303L691.871 190.757Z" fill="black"/>
<path d="M698.24 193.494L693.67 195.303L695.469 199.848L700.039 198.039L698.24 193.494Z" fill="black"/>
<path d="M704.61 196.23L700.037 198.04L701.835 202.583L706.408 200.773L704.61 196.23Z" fill="black"/>
<path d="M710.982 198.963L706.412 200.772L708.211 205.318L712.782 203.509L710.982 198.963Z" fill="black"/>
<path d="M717.348 201.701L712.777 203.51L714.576 208.055L719.147 206.246L717.348 201.701Z" fill="black"/>
<path d="M740.197 192.657L735.627 194.466L737.426 199.011L741.996 197.202L740.197 192.657Z" fill="black"/>
<path d="M742.969 186.303L738.398 188.112L740.198 192.657L744.768 190.848L742.969 186.303Z" fill="black"/>
<path d="M745.738 179.952L741.168 181.761L742.966 186.304L747.536 184.495L745.738 179.952Z" fill="black"/>
<path d="M748.512 173.596L743.939 175.406L745.739 179.952L750.311 178.142L748.512 173.596Z" fill="black"/>
<path d="M751.283 167.242L746.713 169.051L748.512 173.596L753.082 171.787L751.283 167.242Z" fill="black"/>
<path d="M754.055 160.887L749.484 162.696L751.284 167.242L755.854 165.433L754.055 160.887Z" fill="black"/>
<path d="M731.202 169.932L733.002 174.478L737.569 172.67L735.77 168.124L733.972 163.581L729.404 165.389L731.202 169.932Z" fill="black"/>
<path d="M733.002 174.478L728.431 176.286L730.231 180.832L732.03 185.378L736.6 183.569L734.801 179.023L733.002 174.478Z" fill="black"/>
<path d="M727.459 187.186L729.257 191.729L731.056 196.275L735.627 194.466L733.827 189.92L732.029 185.378L727.459 187.186Z" fill="black"/>
<path d="M731.056 196.275L726.488 198.083L721.918 199.892L723.717 204.437L719.147 206.246L720.946 210.792L725.516 208.983L727.315 213.528L731.886 211.719L736.453 209.911L734.654 205.366L739.225 203.557L737.425 199.011L732.855 200.82L731.056 196.275Z" fill="black"/>
<path d="M718.322 190.803L713.752 192.612L715.55 197.155L717.349 201.701L721.92 199.892L720.12 195.346L718.322 190.803Z" fill="black"/>
<path d="M711.951 188.067L710.152 183.521L705.582 185.33L707.381 189.876L709.18 194.421L713.751 192.612L711.951 188.067Z" fill="black"/>
<path d="M701.015 187.138L705.583 185.33L703.784 180.785L701.986 176.242L697.418 178.05L699.216 182.593L701.015 187.138Z" fill="black"/>
<path d="M687.444 166.222L692.02 164.411L690.222 159.868L694.789 158.06L699.36 156.251L703.93 154.442L708.5 152.633L713.068 150.825L717.638 149.016L722.209 147.207L726.776 145.399L728.574 149.942L733.145 148.133L737.718 146.323L742.288 144.514L746.858 142.705L745.06 138.162L740.49 139.971L738.691 135.426L734.121 137.235L729.548 139.045L724.977 140.854L720.41 142.662L715.839 144.471L711.269 146.279L706.701 148.087L702.131 149.896L697.561 151.705L692.99 153.514L688.423 155.322L683.847 157.133L679.279 158.941L681.078 163.487L676.508 165.296L678.306 169.838L682.877 168.03L687.444 166.222Z" fill="black"/>
<path d="M751.426 140.897L746.858 142.705L748.657 147.251L744.087 149.06L739.517 150.869L734.944 152.679L730.373 154.488L728.574 149.942L724.007 151.75L719.436 153.559L721.235 158.105L716.665 159.913L712.097 161.721L707.527 163.53L702.957 165.339L701.158 160.794L696.587 162.603L692.02 164.411L693.819 168.956L689.243 170.767L684.675 172.575L680.105 174.384L678.306 169.839L673.736 171.647L675.535 176.193L670.967 178.001L666.397 179.81L668.196 184.355L669.996 188.903L674.566 187.094L676.364 191.637L680.932 189.829L679.134 185.287L677.334 180.738L681.904 178.93L686.475 177.121L691.042 175.313L692.842 179.861L697.418 178.05L695.618 173.502L700.186 171.694L704.756 169.885L709.326 168.076L713.896 166.267L718.464 164.459L723.035 162.65L727.605 160.841L732.173 159.033L733.973 163.581L738.543 161.772L736.743 157.224L741.316 155.414L745.886 153.605L750.456 151.796L752.257 156.344L754.055 160.887L758.622 159.079L756.824 154.536L761.395 152.728L759.594 148.179L757.795 143.634L753.225 145.443L751.426 140.897Z" fill="black"/>
</g>
<g clip-path="url(#clip5_103_2)">
<path d="M556.225 107.096L552.785 105.373L551.071 108.794L554.511 110.517L556.225 107.096Z" fill="#D7EDF0"/>
<path d="M557.938 103.677L554.498 101.954L552.785 105.373L556.225 107.096L557.938 103.677Z" fill="#D7EDF0"/>
<path d="M559.653 100.255L556.213 98.5323L554.499 101.954L557.939 103.677L559.653 100.255Z" fill="#D7EDF0"/>
<path d="M559.639 91.6896L556.199 89.9665L554.486 93.3878L557.926 95.1109L559.639 91.6896Z" fill="#D7EDF0"/>
<path d="M556.211 98.5322L552.771 96.8091L551.058 100.23L554.498 101.954L556.211 98.5322Z" fill="#D7EDF0"/>
<path d="M557.926 95.1109L554.486 93.3878L552.773 96.8091L556.213 98.5323L557.926 95.1109Z" fill="#D7EDF0"/>
<path d="M556.188 81.4017L552.748 79.6786L551.033 83.1019L554.473 84.825L556.188 81.4017Z" fill="#D7EDF0"/>
<path d="M556.2 89.9665L552.76 88.2434L551.046 91.6647L554.486 93.3878L556.2 89.9665Z" fill="#D7EDF0"/>
<path d="M557.913 86.5471L554.473 84.824L552.76 88.2434L556.2 89.9665L557.913 86.5471Z" fill="#D7EDF0"/>
<path d="M559.628 83.1239L556.188 81.4008L554.473 84.824L557.913 86.5471L559.628 83.1239Z" fill="#D7EDF0"/>
<path d="M545.868 76.2314L542.428 74.5083L540.713 77.9316L544.153 79.6547L545.868 76.2314Z" fill="#D7EDF0"/>
<path d="M544.153 79.6547L540.713 77.9316L539 81.351L542.44 83.0741L544.153 79.6547Z" fill="#D7EDF0"/>
<path d="M542.44 83.0741L539 81.351L537.286 84.7723L540.726 86.4954L542.44 83.0741Z" fill="#D7EDF0"/>
<path d="M540.711 77.9316L537.271 76.2085L535.559 79.6279L538.999 81.351L540.711 77.9316Z" fill="#D7EDF0"/>
<path d="M542.426 74.5083L538.986 72.7852L537.272 76.2085L540.712 77.9316L542.426 74.5083Z" fill="#D7EDF0"/>
<path d="M544.167 88.2185L540.727 86.4954L539.013 89.9168L542.453 91.6399L544.167 88.2185Z" fill="#D7EDF0"/>
<path d="M545.879 84.7972L542.439 83.0741L540.726 86.4954L544.166 88.2185L545.879 84.7972Z" fill="#D7EDF0"/>
<path d="M547.62 98.5084L544.18 96.7853L542.467 100.205L545.907 101.928L547.62 98.5084Z" fill="#D7EDF0"/>
<path d="M547.606 89.9416L544.164 88.2175L542.45 91.6389L545.892 93.3629L547.606 89.9416Z" fill="#D7EDF0"/>
<path d="M545.891 93.3629L542.449 91.6389L540.735 95.0602L544.177 96.7843L545.891 93.3629Z" fill="#D7EDF0"/>
<path d="M549.346 103.65L545.906 101.927L544.193 105.348L547.633 107.071L549.346 103.65Z" fill="#D7EDF0"/>
<path d="M568.256 108.845L564.816 107.122L563.104 110.541L566.544 112.264L568.256 108.845Z" fill="#D7EDF0"/>
<path d="M573.411 107.147L569.971 105.424L568.257 108.845L571.697 110.568L573.411 107.147Z" fill="#D7EDF0"/>
<path d="M575.124 103.725L571.684 102.002L569.97 105.424L573.41 107.147L575.124 103.725Z" fill="#D7EDF0"/>
<path d="M580.276 102.026L576.836 100.303L575.122 103.724L578.562 105.448L580.276 102.026Z" fill="#D7EDF0"/>
<path d="M578.561 105.448L575.121 103.724L573.407 107.146L576.847 108.869L578.561 105.448Z" fill="#D7EDF0"/>
<path d="M585.43 100.331L581.988 98.6069L580.276 102.026L583.718 103.75L585.43 100.331Z" fill="#D7EDF0"/>
<path d="M587.145 96.9077L583.703 95.1836L581.988 98.6069L585.43 100.331L587.145 96.9077Z" fill="#D7EDF0"/>
<path d="M581.989 98.6069L578.549 96.8838L576.836 100.303L580.276 102.026L581.989 98.6069Z" fill="#D7EDF0"/>
<path d="M549.294 69.3888L545.854 67.6656L544.14 71.087L547.58 72.8101L549.294 69.3888Z" fill="#D7EDF0"/>
<path d="M566.494 78.0043L563.054 76.2812L561.341 79.7025L564.781 81.4256L566.494 78.0043Z" fill="#D7EDF0"/>
<path d="M556.199 89.9665L559.639 91.6896L557.926 95.1109L556.212 98.5323L559.652 100.255L563.09 101.977L564.804 98.5562L566.518 95.1348L569.958 96.8579L571.67 93.4385L573.385 90.0153L569.945 88.2922L566.507 86.57L563.067 84.8469L559.627 83.1238L557.912 86.5471L556.199 89.9665Z" fill="#A0D8EB"/>
<path d="M547.592 81.3778L544.152 79.6547L542.439 83.0741L545.879 84.7972L547.592 81.3778Z" fill="#A0D8EB"/>
<path d="M549.319 86.5203L545.877 84.7962L544.163 88.2175L547.605 89.9416L549.319 86.5203Z" fill="#A0D8EB"/>
<path d="M549.335 95.0871L545.895 93.364L544.181 96.7853L547.621 98.5084L549.335 95.0871Z" fill="#A0D8EB"/>
<path d="M551.071 108.794L547.631 107.071L545.917 110.493L549.357 112.216L551.071 108.794Z" fill="#A0D8EB"/>
<path d="M583.718 103.75L580.276 102.026L578.562 105.448L582.004 107.172L583.718 103.75Z" fill="#A0D8EB"/>
<path d="M590.585 98.6308L587.145 96.9077L585.43 100.331L588.87 102.054L590.585 98.6308Z" fill="#A0D8EB"/>
<path d="M587.131 88.341L583.691 86.6179L581.978 90.0392L585.418 91.7623L587.131 88.341Z" fill="#A0D8EB"/>
<path d="M549.295 69.3888L547.581 72.8101L551.019 74.5322L554.463 76.2573L556.177 72.836L552.733 71.1109L549.295 69.3888Z" fill="#A0D8EB"/>
<path d="M575.085 78.0301L571.647 76.308L568.207 74.5849L566.494 78.0043L564.781 81.4256L568.221 83.1487L571.659 84.8708L575.099 86.5939L576.813 83.1726L578.525 79.7532L575.085 78.0301Z" fill="#A0D8EB"/>
<path d="M569.958 96.858L566.518 95.1349L564.805 98.5562L563.091 101.978L559.653 100.255L557.939 103.677L556.226 107.096L554.513 110.517L557.951 112.24L559.664 108.818L561.377 105.399L564.817 107.122L566.531 103.701L568.245 100.279L571.685 102.002L573.398 98.5811L575.111 95.1617L578.549 96.8838L580.264 93.4605L576.826 91.7384L573.386 90.0153L571.671 93.4386L569.958 96.858Z" fill="#30BCE3"/>
<path d="M549.307 77.9545L545.867 76.2314L544.152 79.6547L547.592 81.3778L549.307 77.9545Z" fill="#30BCE3"/>
<path d="M551.032 83.1009L547.59 81.3768L545.877 84.7962L549.319 86.5203L551.032 83.1009Z" fill="#30BCE3"/>
<path d="M551.048 91.6657L547.608 89.9426L545.894 93.3639L549.334 95.087L551.048 91.6657Z" fill="#30BCE3"/>
<path d="M551.059 100.23L547.619 98.5074L545.906 101.927L549.346 103.65L551.059 100.23Z" fill="#30BCE3"/>
<path d="M561.389 113.963L557.949 112.24L556.235 115.661L559.675 117.384L561.389 113.963Z" fill="#30BCE3"/>
<path d="M566.544 112.264L563.104 110.541L561.39 113.963L564.83 115.686L566.544 112.264Z" fill="#30BCE3"/>
<path d="M571.696 110.568L568.256 108.845L566.543 112.264L569.983 113.988L571.696 110.568Z" fill="#30BCE3"/>
<path d="M576.848 108.869L573.408 107.146L571.694 110.567L575.134 112.29L576.848 108.869Z" fill="#30BCE3"/>
<path d="M582.004 107.172L578.562 105.448L576.849 108.869L580.291 110.593L582.004 107.172Z" fill="#30BCE3"/>
<path d="M594.025 100.354L590.585 98.6308L588.87 102.054L585.43 100.331L583.717 103.75L582.003 107.172L585.443 108.895L587.157 105.473L590.597 107.197L592.31 103.777L594.025 100.354Z" fill="#30BCE3"/>
<path d="M590.573 90.065L587.131 88.3409L585.417 91.7623L588.859 93.4864L592.299 95.2095L595.739 96.9326L597.453 93.5112L594.013 91.7881L590.573 90.065Z" fill="#30BCE3"/>
<path d="M581.965 81.4763L578.525 79.7532L576.813 83.1726L580.253 84.8957L583.691 86.6178L585.403 83.1985L581.965 81.4763Z" fill="#30BCE3"/>
<path d="M568.208 74.5849L564.768 72.8618L563.055 76.2812L566.495 78.0043L568.208 74.5849Z" fill="#D7EDF0"/>
<path d="M561.329 71.1397L557.889 69.4166L556.176 72.836L559.616 74.5591L561.329 71.1397Z" fill="#D7EDF0"/>
<path d="M564.768 72.8618L561.328 71.1387L559.615 74.5581L563.055 76.2812L564.768 72.8618Z" fill="#D7EDF0"/>
<path d="M538.999 81.351L535.559 79.6279L533.845 83.0492L537.285 84.7723L538.999 81.351Z" fill="black"/>
<path d="M540.725 86.4954L537.285 84.7723L535.571 88.1937L539.011 89.9168L540.725 86.4954Z" fill="black"/>
<path d="M542.452 91.6399L539.012 89.9167L537.298 93.3381L540.738 95.0612L542.452 91.6399Z" fill="black"/>
<path d="M544.178 96.7843L540.736 95.0602L539.023 98.4796L542.465 100.204L544.178 96.7843Z" fill="black"/>
<path d="M545.907 101.928L542.467 100.205L540.753 103.626L544.193 105.349L545.907 101.928Z" fill="black"/>
<path d="M547.631 107.071L544.191 105.348L542.478 108.769L545.918 110.493L547.631 107.071Z" fill="black"/>
<path d="M564.831 115.686L561.391 113.963L559.677 117.384L563.117 119.107L564.831 115.686Z" fill="black"/>
<path d="M569.983 113.988L566.543 112.264L564.829 115.686L568.269 117.409L569.983 113.988Z" fill="black"/>
<path d="M575.135 112.29L571.695 110.567L569.983 113.987L573.423 115.71L575.135 112.29Z" fill="black"/>
<path d="M580.29 110.593L576.848 108.869L575.134 112.29L578.576 114.014L580.29 110.593Z" fill="black"/>
<path d="M585.444 108.895L582.004 107.172L580.29 110.593L583.73 112.316L585.444 108.895Z" fill="black"/>
<path d="M590.598 107.197L587.158 105.473L585.444 108.895L588.884 110.618L590.598 107.197Z" fill="black"/>
<path d="M573.397 98.5811L571.683 102.002L575.121 103.725L576.835 100.303L578.547 96.8838L575.109 95.1617L573.397 98.5811Z" fill="black"/>
<path d="M571.684 102.002L568.244 100.279L566.53 103.701L564.817 107.122L568.257 108.845L569.97 105.424L571.684 102.002Z" fill="black"/>
<path d="M561.377 105.399L559.664 108.818L557.95 112.24L561.39 113.963L563.104 110.541L564.817 107.122L561.377 105.399Z" fill="black"/>
<path d="M557.949 112.24L554.511 110.517L551.071 108.794L549.357 112.216L545.917 110.493L544.203 113.914L547.643 115.637L545.93 119.058L549.37 120.781L552.808 122.504L554.521 119.082L557.961 120.805L559.675 117.384L556.235 115.661L557.949 112.24Z" fill="black"/>
<path d="M554.499 101.954L551.059 100.23L549.346 103.65L547.632 107.071L551.072 108.794L552.786 105.373L554.499 101.954Z" fill="black"/>
<path d="M552.771 96.8092L554.485 93.3878L551.045 91.6647L549.331 95.0861L547.617 98.5074L551.057 100.23L552.771 96.8092Z" fill="black"/>
<path d="M547.609 89.9426L551.047 91.6647L552.76 88.2434L554.473 84.824L551.035 83.1019L549.322 86.5213L547.609 89.9426Z" fill="black"/>
<path d="M552.733 71.1109L556.177 72.836L557.889 69.4166L561.328 71.1387L564.768 72.8618L568.208 74.5849L571.648 76.308L575.086 78.0301L578.526 79.7532L581.966 81.4763L585.404 83.1985L583.691 86.6178L587.131 88.3409L590.573 90.065L594.013 91.7881L597.453 93.5112L599.166 90.0919L595.726 88.3688L597.439 84.9474L593.999 83.2243L590.557 81.5002L587.117 79.7771L583.679 78.055L580.239 76.3319L576.799 74.6088L573.361 72.8867L569.921 71.1636L566.481 69.4405L563.041 67.7174L559.603 65.9952L556.159 64.2702L552.721 62.5481L551.008 65.9694L547.568 64.2463L545.855 67.6657L549.295 69.3888L552.733 71.1109Z" fill="black"/>
<path d="M600.891 95.2333L597.453 93.5112L595.74 96.9325L592.3 95.2094L588.86 93.4863L585.418 91.7623L581.978 90.0392L583.691 86.6178L580.253 84.8957L576.813 83.1726L575.1 86.5939L571.66 84.8708L568.221 83.1487L564.781 81.4256L561.341 79.7025L563.055 76.2812L559.615 74.5581L556.177 72.8359L554.463 76.2573L551.019 74.5322L547.581 72.8101L544.141 71.087L545.855 67.6656L542.415 65.9425L540.701 69.3639L537.263 67.6417L533.823 65.9186L532.11 69.34L530.395 72.7633L533.835 74.4864L532.122 77.9057L535.56 79.6279L537.273 76.2085L538.988 72.7852L542.428 74.5083L545.868 76.2314L549.306 77.9535L547.591 81.3768L551.035 83.1019L552.75 79.6786L556.188 81.4007L559.628 83.1238L563.068 84.8469L566.508 86.57L569.946 88.2922L573.386 90.0153L576.826 91.7384L580.264 93.4605L578.549 96.8838L581.989 98.6069L583.704 95.1836L587.146 96.9077L590.586 98.6308L594.026 100.354L592.311 103.777L590.598 107.197L594.036 108.919L595.749 105.499L599.189 107.222L600.904 103.799L602.618 100.378L599.178 98.6547L600.891 95.2333Z" fill="black"/>
</g>
<g clip-path="url(#clip6_103_2)">
<path d="M849.253 291.439L845.812 289.716L844.099 293.138L847.539 294.861L849.253 291.439Z" fill="#D7EDF0"/>
<path d="M850.966 288.02L847.526 286.297L845.813 289.716L849.253 291.439L850.966 288.02Z" fill="#D7EDF0"/>
<path d="M852.68 284.599L849.24 282.876L847.526 286.297L850.966 288.02L852.68 284.599Z" fill="#D7EDF0"/>
<path d="M852.667 276.033L849.227 274.31L847.513 277.731L850.953 279.454L852.667 276.033Z" fill="#D7EDF0"/>
<path d="M849.239 282.876L845.799 281.153L844.085 284.574L847.525 286.297L849.239 282.876Z" fill="#D7EDF0"/>
<path d="M850.954 279.454L847.514 277.731L845.8 281.153L849.24 282.876L850.954 279.454Z" fill="#D7EDF0"/>
<path d="M849.215 265.745L845.775 264.022L844.061 267.445L847.501 269.168L849.215 265.745Z" fill="#D7EDF0"/>
<path d="M849.227 274.31L845.787 272.587L844.073 276.008L847.513 277.731L849.227 274.31Z" fill="#D7EDF0"/>
<path d="M850.94 270.89L847.5 269.167L845.787 272.587L849.227 274.31L850.94 270.89Z" fill="#D7EDF0"/>
<path d="M852.655 267.467L849.215 265.744L847.5 269.167L850.94 270.891L852.655 267.467Z" fill="#D7EDF0"/>
<path d="M838.895 260.575L835.455 258.852L833.74 262.275L837.18 263.998L838.895 260.575Z" fill="#D7EDF0"/>
<path d="M837.18 263.998L833.74 262.275L832.027 265.694L835.467 267.418L837.18 263.998Z" fill="#D7EDF0"/>
<path d="M835.467 267.417L832.027 265.694L830.314 269.116L833.754 270.839L835.467 267.417Z" fill="#D7EDF0"/>
<path d="M833.739 262.275L830.299 260.552L828.586 263.971L832.026 265.694L833.739 262.275Z" fill="#D7EDF0"/>
<path d="M835.454 258.852L832.014 257.129L830.299 260.552L833.739 262.275L835.454 258.852Z" fill="#D7EDF0"/>
<path d="M837.194 272.562L833.754 270.839L832.04 274.26L835.48 275.983L837.194 272.562Z" fill="#D7EDF0"/>
<path d="M838.907 269.141L835.467 267.417L833.753 270.839L837.193 272.562L838.907 269.141Z" fill="#D7EDF0"/>
<path d="M840.647 282.852L837.207 281.129L835.494 284.548L838.934 286.271L840.647 282.852Z" fill="#D7EDF0"/>
<path d="M840.633 274.285L837.191 272.561L835.478 275.982L838.92 277.706L840.633 274.285Z" fill="#D7EDF0"/>
<path d="M838.919 277.706L835.477 275.982L833.763 279.404L837.205 281.128L838.919 277.706Z" fill="#D7EDF0"/>
<path d="M842.374 287.993L838.934 286.27L837.22 289.692L840.66 291.415L842.374 287.993Z" fill="#D7EDF0"/>
<path d="M861.284 293.188L857.844 291.465L856.131 294.885L859.571 296.608L861.284 293.188Z" fill="#D7EDF0"/>
<path d="M866.438 291.49L862.998 289.767L861.284 293.188L864.724 294.912L866.438 291.49Z" fill="#D7EDF0"/>
<path d="M868.151 288.069L864.711 286.346L862.997 289.767L866.437 291.49L868.151 288.069Z" fill="#D7EDF0"/>
<path d="M873.303 286.37L869.863 284.647L868.15 288.068L871.59 289.791L873.303 286.37Z" fill="#D7EDF0"/>
<path d="M871.588 289.791L868.148 288.068L866.435 291.489L869.875 293.212L871.588 289.791Z" fill="#D7EDF0"/>
<path d="M878.458 284.674L875.016 282.95L873.303 286.37L876.745 288.094L878.458 284.674Z" fill="#D7EDF0"/>
<path d="M880.172 281.251L876.73 279.527L875.016 282.95L878.458 284.674L880.172 281.251Z" fill="#D7EDF0"/>
<path d="M875.016 282.95L871.576 281.227L869.863 284.647L873.303 286.37L875.016 282.95Z" fill="#D7EDF0"/>
<path d="M842.321 253.732L838.881 252.009L837.167 255.43L840.607 257.153L842.321 253.732Z" fill="#D7EDF0"/>
<path d="M859.522 262.348L856.082 260.625L854.368 264.046L857.808 265.769L859.522 262.348Z" fill="#D7EDF0"/>
<path d="M849.227 274.31L852.667 276.033L850.953 279.454L849.239 282.876L852.679 284.599L856.117 286.321L857.831 282.9L859.545 279.478L862.985 281.201L864.698 277.782L866.412 274.359L862.972 272.636L859.534 270.913L856.094 269.19L852.654 267.467L850.94 270.89L849.227 274.31Z" fill="#A0D8EB"/>
<path d="M840.62 265.721L837.18 263.998L835.467 267.417L838.907 269.141L840.62 265.721Z" fill="#A0D8EB"/>
<path d="M842.346 270.864L838.904 269.14L837.191 272.561L840.633 274.285L842.346 270.864Z" fill="#A0D8EB"/>
<path d="M842.362 279.43L838.922 277.707L837.208 281.129L840.648 282.852L842.362 279.43Z" fill="#A0D8EB"/>
<path d="M844.098 293.138L840.658 291.415L838.944 294.836L842.384 296.559L844.098 293.138Z" fill="#A0D8EB"/>
<path d="M876.745 288.094L873.303 286.37L871.589 289.791L875.031 291.515L876.745 288.094Z" fill="#A0D8EB"/>
<path d="M883.612 282.974L880.172 281.251L878.457 284.674L881.897 286.397L883.612 282.974Z" fill="#A0D8EB"/>
<path d="M880.159 272.684L876.719 270.961L875.005 274.383L878.445 276.106L880.159 272.684Z" fill="#A0D8EB"/>
<path d="M842.322 253.732L840.609 257.154L844.047 258.876L847.49 260.601L849.204 257.179L845.76 255.454L842.322 253.732Z" fill="#A0D8EB"/>
<path d="M868.113 262.374L864.675 260.651L861.235 258.928L859.522 262.348L857.808 265.769L861.248 267.492L864.686 269.214L868.126 270.937L869.84 267.516L871.553 264.097L868.113 262.374Z" fill="#A0D8EB"/>
<path d="M862.986 281.201L859.546 279.478L857.832 282.9L856.118 286.321L852.68 284.599L850.966 288.02L849.254 291.439L847.54 294.861L850.978 296.583L852.692 293.162L854.404 289.742L857.844 291.465L859.558 288.044L861.272 284.623L864.712 286.346L866.426 282.924L868.138 279.505L871.577 281.227L873.291 277.804L869.853 276.082L866.413 274.359L864.698 277.782L862.986 281.201Z" fill="#30BCE3"/>
<path d="M842.334 262.298L838.894 260.575L837.18 263.998L840.62 265.721L842.334 262.298Z" fill="#30BCE3"/>
<path d="M844.059 267.444L840.617 265.72L838.904 269.14L842.346 270.864L844.059 267.444Z" fill="#30BCE3"/>
<path d="M844.075 276.009L840.635 274.286L838.921 277.707L842.361 279.43L844.075 276.009Z" fill="#30BCE3"/>
<path d="M844.086 284.574L840.646 282.851L838.934 286.27L842.374 287.993L844.086 284.574Z" fill="#30BCE3"/>
<path d="M854.417 298.306L850.977 296.583L849.263 300.004L852.703 301.727L854.417 298.306Z" fill="#30BCE3"/>
<path d="M859.571 296.608L856.131 294.885L854.417 298.306L857.857 300.029L859.571 296.608Z" fill="#30BCE3"/>
<path d="M864.723 294.912L861.283 293.188L859.57 296.608L863.01 298.331L864.723 294.912Z" fill="#30BCE3"/>
<path d="M869.875 293.212L866.435 291.489L864.722 294.911L868.162 296.634L869.875 293.212Z" fill="#30BCE3"/>
<path d="M875.032 291.515L871.59 289.791L869.876 293.212L873.318 294.936L875.032 291.515Z" fill="#30BCE3"/>
<path d="M887.052 284.697L883.612 282.974L881.897 286.397L878.457 284.674L876.744 288.094L875.031 291.515L878.471 293.238L880.184 289.817L883.624 291.54L885.337 288.121L887.052 284.697Z" fill="#30BCE3"/>
<path d="M883.6 274.408L880.158 272.684L878.444 276.106L881.886 277.83L885.326 279.553L888.766 281.276L890.48 277.855L887.04 276.132L883.6 274.408Z" fill="#30BCE3"/>
<path d="M874.993 265.82L871.553 264.097L869.84 267.516L873.28 269.239L876.718 270.961L878.431 267.542L874.993 265.82Z" fill="#30BCE3"/>
<path d="M861.235 258.928L857.795 257.205L856.082 260.625L859.522 262.348L861.235 258.928Z" fill="#D7EDF0"/>
<path d="M854.356 255.483L850.916 253.76L849.203 257.179L852.643 258.902L854.356 255.483Z" fill="#D7EDF0"/>
<path d="M857.795 257.205L854.355 255.482L852.643 258.901L856.083 260.625L857.795 257.205Z" fill="#D7EDF0"/>
<path d="M832.026 265.694L828.586 263.971L826.872 267.393L830.312 269.116L832.026 265.694Z" fill="black"/>
<path d="M833.753 270.839L830.312 269.116L828.599 272.537L832.039 274.26L833.753 270.839Z" fill="black"/>
<path d="M835.479 275.983L832.039 274.26L830.326 277.681L833.766 279.405L835.479 275.983Z" fill="black"/>
<path d="M837.206 281.128L833.764 279.404L832.051 282.823L835.493 284.547L837.206 281.128Z" fill="black"/>
<path d="M838.934 286.271L835.494 284.548L833.78 287.969L837.22 289.692L838.934 286.271Z" fill="black"/>
<path d="M840.659 291.415L837.219 289.692L835.505 293.113L838.945 294.836L840.659 291.415Z" fill="black"/>
<path d="M857.858 300.029L854.418 298.306L852.704 301.727L856.144 303.45L857.858 300.029Z" fill="black"/>
<path d="M863.01 298.331L859.57 296.608L857.857 300.029L861.297 301.752L863.01 298.331Z" fill="black"/>
<path d="M868.163 296.634L864.723 294.911L863.01 298.33L866.45 300.053L868.163 296.634Z" fill="black"/>
<path d="M873.317 294.936L869.875 293.212L868.161 296.634L871.603 298.358L873.317 294.936Z" fill="black"/>
<path d="M878.471 293.238L875.031 291.515L873.317 294.936L876.757 296.66L878.471 293.238Z" fill="black"/>
<path d="M883.626 291.54L880.186 289.817L878.472 293.238L881.912 294.961L883.626 291.54Z" fill="black"/>
<path d="M866.424 282.924L864.71 286.346L868.148 288.068L869.862 284.647L871.575 281.227L868.137 279.505L866.424 282.924Z" fill="black"/>
<path d="M864.711 286.346L861.271 284.623L859.558 288.044L857.844 291.465L861.284 293.188L862.998 289.767L864.711 286.346Z" fill="black"/>
<path d="M854.404 289.742L852.692 293.162L850.978 296.583L854.418 298.306L856.132 294.885L857.844 291.465L854.404 289.742Z" fill="black"/>
<path d="M850.976 296.583L847.538 294.861L844.098 293.138L842.384 296.559L838.944 294.836L837.231 298.257L840.671 299.98L838.957 303.402L842.397 305.125L845.835 306.847L847.549 303.426L850.989 305.149L852.703 301.727L849.263 300.004L850.976 296.583Z" fill="black"/>
<path d="M847.526 286.297L844.086 284.574L842.373 287.993L840.659 291.415L844.099 293.138L845.813 289.716L847.526 286.297Z" fill="black"/>
<path d="M845.799 281.153L847.512 277.731L844.072 276.008L842.359 279.429L840.645 282.851L844.085 284.574L845.799 281.153Z" fill="black"/>
<path d="M840.636 274.286L844.074 276.008L845.788 272.587L847.501 269.167L844.062 267.445L842.35 270.865L840.636 274.286Z" fill="black"/>
<path d="M845.76 255.454L849.204 257.179L850.917 253.76L854.355 255.482L857.795 257.205L861.235 258.928L864.675 260.651L868.113 262.374L871.553 264.097L874.993 265.82L878.431 267.542L876.718 270.961L880.158 272.684L883.6 274.408L887.04 276.132L890.48 277.855L892.193 274.435L888.753 272.712L890.467 269.291L887.027 267.568L883.585 265.844L880.145 264.121L876.707 262.398L873.267 260.675L869.827 258.952L866.389 257.23L862.949 255.507L859.509 253.784L856.069 252.061L852.631 250.339L849.187 248.614L845.749 246.891L844.035 250.313L840.595 248.59L838.882 252.009L842.322 253.732L845.76 255.454Z" fill="black"/>
<path d="M893.919 279.577L890.481 277.855L888.767 281.276L885.327 279.553L881.887 277.83L878.445 276.106L875.005 274.383L876.719 270.961L873.281 269.239L869.841 267.516L868.127 270.937L864.687 269.214L861.249 267.492L857.809 265.769L854.369 264.046L856.083 260.625L852.643 258.901L849.204 257.179L847.491 260.601L844.047 258.876L840.609 257.153L837.169 255.43L838.883 252.009L835.443 250.286L833.729 253.707L830.291 251.985L826.851 250.262L825.137 253.683L823.422 257.107L826.862 258.83L825.149 262.249L828.588 263.971L830.3 260.552L832.015 257.129L835.455 258.852L838.895 260.575L842.333 262.297L840.618 265.72L844.062 267.445L845.777 264.022L849.215 265.744L852.655 267.467L856.095 269.19L859.535 270.913L862.973 272.636L866.413 274.359L869.853 276.082L873.291 277.804L871.576 281.227L875.016 282.95L876.731 279.527L880.173 281.251L883.613 282.974L887.053 284.697L885.338 288.121L883.626 291.54L887.064 293.262L888.776 289.843L892.216 291.566L893.931 288.142L895.645 284.721L892.205 282.998L893.919 279.577Z" fill="black"/>
</g>
<defs>
<clipPath id="clip0_103_2">
<rect width="467" height="337.467" fill="white" transform="translate(0 0.266479)"/>
</clipPath>
<clipPath id="clip1_103_2">
<rect width="158" height="110" fill="white" transform="translate(501 210)"/>
</clipPath>
<clipPath id="clip2_103_2">
<rect width="55.5604" height="38.6813" fill="white" transform="translate(660.59 15) rotate(8.30925)"/>
</clipPath>
<clipPath id="clip3_103_2">
<rect width="158" height="110" fill="white" transform="translate(782.863 29) rotate(14.6725)"/>
</clipPath>
<clipPath id="clip4_103_2">
<rect width="98.2974" height="68.4349" fill="white" transform="translate(661 166.176) rotate(-21.5939)"/>
</clipPath>
<clipPath id="clip5_103_2">
<rect width="76.9421" height="53.5673" fill="white" transform="translate(538.963 55.6566) rotate(26.6063)"/>
</clipPath>
<clipPath id="clip6_103_2">
<rect width="76.9421" height="53.5673" fill="white" transform="translate(831.99 240) rotate(26.6063)"/>
</clipPath>
</defs>
</svg>
