<svg width="22" height="22" fill="none" xmlns="http://www.w3.org/2000/svg"><g clip-path="url(#a)"><path d="M18.624 4.118a18.33 18.33 0 0 0-4.478-1.366.068.068 0 0 0-.072.033c-.192.338-.407.779-.557 1.127a17.019 17.019 0 0 0-5.03 0 11.328 11.328 0 0 0-.566-1.127.07.07 0 0 0-.072-.035A18.316 18.316 0 0 0 3.37 4.117a.064.064 0 0 0-.03.024C.49 8.335-.292 12.425.092 16.464a.074.074 0 0 0 .029.05 18.361 18.361 0 0 0 5.493 2.732.071.071 0 0 0 .077-.024c.424-.567.8-1.169 1.124-1.799a.068.068 0 0 0-.038-.095 12.104 12.104 0 0 1-1.716-.805.068.068 0 0 1-.034-.055.069.069 0 0 1 .027-.06 9.71 9.71 0 0 0 .341-.263.07.07 0 0 1 .072-.009c3.6 1.617 7.498 1.617 11.055 0a.069.069 0 0 1 .073.008c.11.09.224.179.34.264a.068.068 0 0 1 .02.091.068.068 0 0 1-.025.024c-.548.315-1.118.582-1.716.804a.069.069 0 0 0-.046.068c0 .01.003.02.008.028.33.63.708 1.23 1.123 1.799a.07.07 0 0 0 .077.025 18.3 18.3 0 0 0 5.502-2.732.071.071 0 0 0 .029-.05c.458-4.67-.768-8.727-3.253-12.322a.055.055 0 0 0-.029-.025ZM7.352 14.005c-1.083 0-1.977-.98-1.977-2.182 0-1.203.876-2.182 1.977-2.182 1.11 0 1.995.988 1.977 2.182 0 1.203-.876 2.182-1.977 2.182Zm7.31 0c-1.084 0-1.977-.98-1.977-2.182 0-1.203.876-2.182 1.977-2.182 1.11 0 1.995.988 1.978 2.182 0 1.203-.867 2.182-1.978 2.182Z" fill="#FFF8DC"/></g><defs><clipPath id="a"><path fill="#fff" d="M0 0h22v22H0z"/></clipPath></defs></svg>