<svg width="21" height="20" fill="none" xmlns="http://www.w3.org/2000/svg"><path fill-rule="evenodd" clip-rule="evenodd" d="M10.081.101c-.479.228-.586.491-.586 1.43 0 .38-.024.645-.06.668-.032.022-.126.013-.209-.019a5.794 5.794 0 0 0-.374-.122c-1.486-.431-1.934-.551-1.958-.525-.016.017.156.439.384.937.626 1.372.722 1.62 1.108 2.851.21.675.269.901.384 1.504.226 1.18.216 2.493-.024 3.271-.193.623-.828 1.97-1.295 2.742-.53.878-.557.93-.506.983.025.027.603.062 1.284.078l1.238.03.015 1.016.015 1.017h-1.44c-1.707 0-1.81-.023-2.308-.53a1.826 1.826 0 0 1-.555-1.33v-.321H0v.457c0 .928.359 2.167.857 2.962.835 1.33 2.025 2.24 3.444 2.636l.586.164h5.11c4.795 0 5.128-.007 5.39-.107.892-.341 1.577-1.086 2.665-2.898.176-.293.37-.625.43-.738.435-.815 1.068-1.424 1.987-1.909l.531-.28v-.664c0-.366-.014-.68-.031-.698-.017-.018-.099-.008-.182.023-.129.047-1.607.497-2.105.641-.092.027-.306.092-.475.146a41.46 41.46 0 0 1-.949.288c-.169.05-.37.108-.447.128-.077.02-.19.057-.251.083a3.757 3.757 0 0 1-.335.11l-.363.104c-.077.022-.447.351-.822.732-.974.987-.935.971-2.446.971h-1.228v-2.004l.794-.03.794-.029.287-.294c1.236-1.265 1.964-2.336 2.347-3.45.106-.309.131-.501.133-1.001.001-.675-.056-.955-.339-1.66-.341-.848-.993-1.818-1.887-2.806-.605-.668-1.654-1.632-1.948-1.79l-.21-.113v-.989c0-.864-.013-1.017-.108-1.214-.118-.244-.264-.378-.531-.487-.233-.095-.356-.088-.617.036ZM5.742 4.038c-.047.057-.508.807-1.024 1.667-.516.859-1.06 1.753-1.208 1.987-.149.233-.27.443-.27.466a.893.893 0 0 1-.131.223c-.361.504-1.884 3.123-1.858 3.195.025.069.41.083 2.347.083 2.308 0 2.318 0 2.431-.129.174-.197.866-1.684.97-2.086.179-.683.118-1.713-.176-2.973-.164-.702-.824-2.479-.935-2.517-.033-.011-.098.026-.146.084Z" fill="#FFF8DC"/></svg>