<svg width="21" height="21" fill="none" xmlns="http://www.w3.org/2000/svg"><path d="M20.688 4.32a8.163 8.163 0 0 1-2.34.641 4.086 4.086 0 0 0 1.791-2.255c-.8.475-1.675.81-2.588.989a4.078 4.078 0 0 0-6.946 3.718 11.575 11.575 0 0 1-8.401-4.26 4.078 4.078 0 0 0 1.262 5.442 4.066 4.066 0 0 1-1.847-.509v.053a4.077 4.077 0 0 0 3.27 3.997c-.6.162-1.23.186-1.84.07a4.078 4.078 0 0 0 3.807 2.83 8.18 8.18 0 0 1-5.063 1.745c-.325 0-.65-.019-.973-.057a11.527 11.527 0 0 0 6.248 1.831c7.499 0 11.598-6.21 11.598-11.597 0-.175-.004-.352-.012-.527a8.285 8.285 0 0 0 2.032-2.108l.002-.003Z" fill="#FFF8DC"/></svg>